<svg width="40" height="40" viewBox="0 0 40 40" fill="none" xmlns="http://www.w3.org/2000/svg">
<g clip-path="url(#clip0_1_1054)">
<path d="M21.3333 10.7416C28.0321 11.4506 33.0041 17.2787 32.6491 24.0055C32.294 30.7323 26.7362 36.0045 20 36.0045C13.2638 36.0045 7.70598 30.7323 7.35095 24.0055C6.99592 17.2787 11.9679 11.4506 18.6667 10.7416H21.3333Z" fill="#E8EDFC"/>
<path d="M21.3333 10.7416H19.3333C25.8408 11.4252 30.7548 16.9556 30.6683 23.4983C30.5818 30.041 25.5232 35.4396 19 35.9509C19.3333 35.9769 19.6627 36.0016 20 36.0016C26.7255 35.987 32.2671 30.7188 32.6216 24.0026C32.9761 17.2864 28.02 11.4641 21.3333 10.7416Z" fill="#1781F8"/>
<path d="M3.30268 18.5222L2.05001 18.0669C1.88337 18.0067 1.74753 17.8827 1.67248 17.7222C1.59743 17.5618 1.58935 17.378 1.65001 17.2116L1.87801 16.5862C2.04068 16.1409 2.22868 15.6896 2.43601 15.2456L2.71868 14.6416C2.87445 14.308 3.2711 14.1639 3.60468 14.3196L4.81268 14.8842C4.97303 14.959 5.09706 15.0945 5.15745 15.2608C5.21785 15.4271 5.20966 15.6106 5.13468 15.7709L4.85201 16.3742C4.67734 16.7489 4.51868 17.1276 4.38534 17.5002L4.15668 18.1262C4.02975 18.471 3.64783 18.6481 3.30268 18.5222Z" fill="#E8EDFC"/>
<path d="M18.072 6.10558L17.9867 4.77224C17.9646 4.4058 18.243 4.09048 18.6093 4.06691L19.276 4.02424C19.7753 3.99224 20.2761 3.99224 20.7753 4.02424L21.442 4.06424C21.8092 4.08676 22.0887 4.4024 22.0667 4.76958L21.986 6.10291C21.9754 6.27948 21.895 6.44458 21.7626 6.56186C21.6302 6.67915 21.4566 6.739 21.28 6.72825L20.6133 6.68758C20.2246 6.66424 19.8348 6.66424 19.446 6.68758L18.7793 6.73024C18.6027 6.74137 18.4288 6.68178 18.2961 6.5646C18.1634 6.44742 18.0828 6.28227 18.072 6.10558Z" fill="#E8EDFC"/>
<path d="M33.6033 12.5517C33.3297 12.798 32.9084 12.7759 32.662 12.5024L32.216 12.007C31.9527 11.715 31.6747 11.4344 31.3647 11.1497L30.874 10.699C30.7438 10.5794 30.6664 10.413 30.6589 10.2363C30.6514 10.0597 30.7144 9.88726 30.834 9.75704L31.7333 8.77504C31.853 8.6449 32.0195 8.56765 32.1962 8.56027C32.3728 8.5529 32.5452 8.616 32.6753 8.7357L33.166 9.18637C33.5393 9.52837 33.8753 9.8677 34.1953 10.223L34.6413 10.7184C34.8876 10.992 34.8655 11.4134 34.592 11.6597L33.6033 12.5517Z" fill="#E8EDFC"/>
<path d="M38.5674 25.4002L37.234 25.3222C37.0575 25.3117 36.8923 25.2315 36.7749 25.0992C36.6575 24.967 36.5975 24.7934 36.608 24.6169L36.6474 23.9502C36.6587 23.7502 36.6647 23.5415 36.6647 23.3349C36.6647 23.1489 36.6594 22.9635 36.6474 22.7782L36.606 22.1115C36.5828 21.7441 36.8619 21.4274 37.2294 21.4042L38.5627 21.3209C38.9301 21.2981 39.2465 21.5774 39.2694 21.9449L39.3107 22.6115C39.326 22.8529 39.3334 23.0929 39.3334 23.3349C39.3334 23.5935 39.326 23.8542 39.3114 24.1062L39.272 24.7729C39.2619 24.9496 39.1819 25.115 39.0497 25.2326C38.9176 25.3503 38.744 25.4106 38.5674 25.4002Z" fill="#E8EDFC"/>
<path d="M36.718 18.5755C36.5515 18.6361 36.3678 18.628 36.2073 18.553C36.0468 18.4779 35.9228 18.3421 35.8627 18.1755L35.634 17.5495C35.4773 17.1201 35.3267 16.7575 35.1733 16.4401L34.8827 15.8401C34.7227 15.5087 34.8614 15.1104 35.1927 14.9501L36.3927 14.3695C36.724 14.2094 37.1224 14.3482 37.2827 14.6795L37.5727 15.2795C37.7842 15.7218 37.9731 16.1746 38.1387 16.6361L38.3673 17.2615C38.428 17.4279 38.4199 17.6117 38.3449 17.7721C38.2698 17.9326 38.134 18.0566 37.9673 18.1168L36.718 18.5755Z" fill="#E8EDFC"/>
<path d="M28.454 8.14834C28.2987 8.48201 27.9025 8.62674 27.5687 8.47167L26.964 8.19034C26.6045 8.01935 26.2365 7.86693 25.8614 7.73367L25.2314 7.51434C24.8846 7.3931 24.7012 7.01417 24.8214 6.667L25.2607 5.40834C25.3189 5.2413 25.4411 5.10425 25.6004 5.02735C25.7597 4.95045 25.943 4.94002 26.11 4.99834L26.7394 5.21767C27.1984 5.38045 27.649 5.56624 28.0894 5.77434L28.6934 6.05567C29.027 6.21094 29.1718 6.60723 29.0167 6.941L28.454 8.14834Z" fill="#E8EDFC"/>
<path d="M11.6167 8.14221L11.036 6.94221C10.959 6.78292 10.9485 6.59955 11.0067 6.43249C11.065 6.26543 11.1873 6.12839 11.3467 6.05155L11.9467 5.76155C12.3889 5.55064 12.8415 5.36218 13.3027 5.19688L13.928 4.96755C14.0945 4.90688 14.2782 4.91497 14.4387 4.99002C14.5992 5.06507 14.7232 5.20091 14.7833 5.36755L15.2413 6.61955C15.3018 6.78592 15.2936 6.9695 15.2186 7.12983C15.1435 7.29015 15.0078 7.41405 14.8413 7.47421L14.2153 7.70355C13.78 7.86288 13.4273 8.00955 13.104 8.16555L12.504 8.45555C12.1724 8.6133 11.7757 8.47321 11.6167 8.14221Z" fill="#E8EDFC"/>
<path d="M1.43732 25.347C1.06988 25.3698 0.753511 25.0905 0.730656 24.723L0.689323 24.0564C0.67399 23.8164 0.666656 23.5764 0.666656 23.3337C0.666656 23.0744 0.67399 22.8137 0.688656 22.5617L0.72799 21.895C0.738296 21.7185 0.818338 21.5532 0.950497 21.4357C1.08266 21.3182 1.2561 21.258 1.43266 21.2684L2.76599 21.347C3.1334 21.3688 3.41362 21.6843 3.39199 22.0517L3.35266 22.7184C3.34132 22.9184 3.33532 23.1264 3.33532 23.3337C3.33532 23.519 3.34066 23.7044 3.35266 23.8904L3.39399 24.557C3.4168 24.9242 3.13783 25.2405 2.77066 25.2637L1.43732 25.347Z" fill="#E8EDFC"/>
<path d="M6.42133 12.5002L5.44 11.6002C5.30897 11.4805 5.23107 11.3135 5.22356 11.1361C5.21605 10.9588 5.27955 10.7858 5.4 10.6555L5.85133 10.1648C6.198 9.78749 6.53733 9.45215 6.888 9.13682L7.384 8.69149C7.65777 8.44541 8.07917 8.4678 8.32533 8.74149L9.21733 9.73349C9.33563 9.86508 9.39676 10.0383 9.38726 10.215C9.37775 10.3917 9.2984 10.5573 9.16667 10.6755L8.67067 11.1202C8.384 11.3788 8.10333 11.6568 7.81467 11.9715L7.36333 12.4622C7.11369 12.7328 6.69196 12.7498 6.42133 12.5002Z" fill="#E8EDFC"/>
<path d="M20.6667 9.33496H19.3333C18.9651 9.33496 18.6667 9.63344 18.6667 10.0016V15.335C18.6667 15.7032 18.9651 16.0016 19.3333 16.0016H20.6667C21.0348 16.0016 21.3333 15.7032 21.3333 15.335V10.0016C21.3333 9.63344 21.0348 9.33496 20.6667 9.33496Z" fill="#1781F8"/>
<path d="M7.81468 11.971L7.82935 11.9556L7.44002 11.6003C7.30988 11.4806 7.23263 11.3141 7.22525 11.1374C7.21787 10.9608 7.28098 10.7884 7.40068 10.6583L7.85202 10.1676C8.16135 9.8343 8.46535 9.53096 8.77668 9.24563L8.32602 8.74429C8.07985 8.4706 7.65845 8.44822 7.38468 8.69429L6.88868 9.13963C6.53802 9.45429 6.19868 9.7903 5.85202 10.1676L5.40068 10.6583C5.28098 10.7884 5.21787 10.9608 5.22525 11.1374C5.23263 11.3141 5.30988 11.4806 5.44002 11.6003L6.42135 12.5003C6.69216 12.7497 7.1139 12.7324 7.36335 12.4616L7.81468 11.971Z" fill="white"/>
<path d="M2.72133 14.6387L2.43867 15.2434C2.23133 15.6874 2.04333 16.1387 1.88067 16.584L1.65267 17.2094C1.592 17.3758 1.60009 17.5596 1.67514 17.7201C1.75019 17.8805 1.88603 18.0046 2.05267 18.0647L3.30533 18.522C3.4717 18.5825 3.65529 18.5743 3.81561 18.4993C3.97594 18.4242 4.09984 18.2885 4.16 18.122L4.16667 18.104L4.05 18.0667C3.88336 18.0066 3.74752 17.8825 3.67247 17.7221C3.59742 17.5616 3.58934 17.3778 3.65 17.2114L3.878 16.586C4.04067 16.1407 4.22867 15.6894 4.436 15.2454L4.642 14.8047L3.60467 14.3194C3.27249 14.1651 2.87807 14.3077 2.72133 14.6387Z" fill="white"/>
<path d="M12.5067 8.45237L13.1067 8.16237C13.24 8.09571 13.3853 8.03437 13.534 7.97104L13.036 6.94171C12.959 6.78241 12.9485 6.59904 13.0067 6.43198C13.065 6.26493 13.1873 6.12788 13.3467 6.05104L13.9467 5.76104C14.2047 5.63637 14.4913 5.51504 14.794 5.39371L14.7833 5.36437C14.7232 5.19774 14.5992 5.0619 14.4387 4.98685C14.2782 4.9118 14.0945 4.90371 13.928 4.96437L13.3027 5.19371C12.8415 5.35901 12.3889 5.54747 11.9467 5.75837L11.3467 6.04837C11.1873 6.12522 11.065 6.26226 11.0067 6.42932C10.9485 6.59638 10.959 6.77975 11.036 6.93904L11.6167 8.13904C11.693 8.29871 11.8298 8.42146 11.9967 8.48023C12.1636 8.53901 12.3471 8.52899 12.5067 8.45237Z" fill="white"/>
<path d="M21.552 6.68225C21.5167 6.68225 21.4807 6.68225 21.4453 6.68558L21.0407 6.71158L21.278 6.72625C21.3714 6.73127 21.4649 6.71627 21.552 6.68225Z" fill="white"/>
<path d="M20 36.0003C20.3373 36.0003 20.6667 35.9756 21 35.9496C14.4798 35.4347 9.42544 30.0375 9.33896 23.4976C9.25248 16.9577 14.1624 11.4287 20.6667 10.7416V10.0003C20.6694 9.76616 20.7963 9.55113 21 9.43562C20.9003 9.37168 20.785 9.3364 20.6667 9.33362H19.3333C18.9651 9.33362 18.6667 9.63209 18.6667 10.0003V10.7403C11.98 11.4628 7.02385 17.2851 7.37836 24.0013C7.73287 30.7175 13.2745 35.9857 20 36.0003Z" fill="white"/>
<path d="M2.73332 24.723L2.69199 24.0564C2.67399 23.8164 2.66666 23.5764 2.66666 23.3337C2.66666 23.0744 2.67399 22.8137 2.68866 22.5617L2.72799 21.895C2.7406 21.7014 2.83822 21.5232 2.99466 21.4084C2.9216 21.3736 2.84269 21.3528 2.76199 21.347L1.42866 21.2684C1.2521 21.258 1.07866 21.3182 0.946497 21.4357C0.814338 21.5532 0.734296 21.7185 0.72399 21.895L0.684656 22.5617C0.67399 22.815 0.666656 23.0757 0.666656 23.3337C0.666656 23.575 0.67399 23.815 0.689323 24.057L0.730656 24.7237C0.753511 25.0911 1.06988 25.3705 1.43732 25.3477L2.77066 25.2644C2.84832 25.258 2.92421 25.2377 2.99466 25.2044C2.84167 25.0896 2.74626 24.9139 2.73332 24.723Z" fill="white"/>
<path d="M9.05532 28.2371L7.83932 28.7831C7.06675 27.0702 6.66703 25.2128 6.66666 23.3337H7.99999C8.0006 25.0245 8.36031 26.6958 9.05532 28.2371Z" fill="white"/>
<path d="M12.7554 34.5174C13.8295 35.212 14.9966 35.7507 16.222 36.1174C17.4513 36.4678 18.7219 36.6525 20 36.6667C26.9738 36.6724 32.7721 31.2996 33.297 24.3455C33.8219 17.3915 28.8957 11.2092 22 10.1681V10.0001C22 9.2637 21.4031 8.66675 20.6667 8.66675H19.3334C18.597 8.66675 18 9.2637 18 10.0001V10.1681C11.4783 11.1354 6.65325 16.7403 6.66668 23.3334C6.66668 23.7016 6.96516 24.0001 7.33335 24.0001C7.70154 24.0001 8.00002 23.7016 8.00002 23.3334C7.98793 17.4763 12.2216 12.4732 18 11.5161V15.3334C18 16.0698 18.597 16.6667 19.3334 16.6667H20.6667C21.4031 16.6667 22 16.0698 22 15.3334V11.5161C28.1469 12.5559 32.472 18.1319 31.9503 24.3443C31.4286 30.5566 26.2342 35.3332 20 35.3334C18.8497 35.3182 17.7065 35.151 16.6 34.8361C13.2445 33.8391 10.4901 31.4293 9.05602 28.2361C8.9 27.9167 8.52672 27.7683 8.19402 27.8934C8.02355 27.9574 7.88797 28.0903 7.82058 28.2595C7.7532 28.4287 7.76025 28.6184 7.84002 28.7821C8.89561 31.125 10.6016 33.1156 12.7554 34.5174ZM19.3334 15.3334V10.0001H20.6667V15.3334H19.3334Z" fill="#060B56"/>
<path d="M7.63067 26.6508C7.3925 26.6519 7.17184 26.5258 7.05182 26.3201C6.93181 26.1144 6.93066 25.8602 7.04882 25.6534C7.16698 25.4466 7.3865 25.3186 7.62467 25.3175H7.63067C7.99886 25.3175 8.29734 25.616 8.29734 25.9842C8.29734 26.3524 7.99886 26.6508 7.63067 26.6508Z" fill="#060B56"/>
<path d="M3.89066 13.7141C3.5703 13.5641 3.20343 13.5475 2.87084 13.668C2.53824 13.7886 2.26718 14.0363 2.11733 14.3568L1.83466 14.9608C1.62066 15.4201 1.42533 15.8888 1.25466 16.3555L1.02599 16.9815C0.773732 17.6731 1.12977 18.4383 1.82133 18.6908L3.07399 19.1488C3.76582 19.401 4.53111 19.0446 4.78333 18.3528L5.01199 17.7268C5.14533 17.3708 5.29199 17.0101 5.45799 16.6541L5.73933 16.0541C5.88938 15.7338 5.90596 15.3669 5.78542 15.0343C5.66489 14.7017 5.41712 14.4307 5.09666 14.2808L3.89066 13.7141ZM4.25066 16.0901C4.06866 16.4801 3.90333 16.8761 3.75999 17.2695L3.53133 17.8961L2.27933 17.4381L2.50799 16.8135C2.66466 16.3828 2.84533 15.9501 3.04133 15.5261L3.32399 14.9221L4.53133 15.4861L4.25066 16.0901Z" fill="#060B56"/>
<path d="M18.7333 7.39622H18.8193L19.486 7.35356C19.8475 7.33155 20.2099 7.33155 20.5713 7.35356L21.238 7.39422C21.5916 7.41828 21.9399 7.29802 22.2033 7.06089C22.4685 6.82658 22.6293 6.49616 22.65 6.14289L22.73 4.80956C22.7733 4.07496 22.2132 3.44421 21.4787 3.40022L20.812 3.36022C20.285 3.32621 19.7563 3.32621 19.2293 3.36022L18.5627 3.40289C18.2094 3.42516 17.8795 3.587 17.6456 3.85274C17.4118 4.11848 17.2932 4.46631 17.316 4.81956L17.402 6.14956C17.4477 6.85112 18.0303 7.39666 18.7333 7.39622ZM19.3167 4.68956C19.5427 4.67489 19.7753 4.66689 20.0113 4.66689C20.2473 4.66689 20.488 4.67489 20.7313 4.68956L21.398 4.72956L21.318 6.06289L20.6513 6.02222C20.235 5.99755 19.8176 5.99755 19.4013 6.02222L18.7347 6.06622L18.6493 4.73289L19.3167 4.68956Z" fill="#060B56"/>
<path d="M35.0407 12.1548C35.5877 11.6621 35.6318 10.8194 35.1393 10.2722L34.6933 9.77685C34.356 9.40285 34.0047 9.04885 33.6193 8.69618L33.1287 8.24418C32.8674 8.00632 32.5231 7.88063 32.17 7.89418C31.8166 7.90818 31.4835 8.06274 31.2447 8.32351L30.3433 9.30551C30.104 9.56586 29.9779 9.91062 29.9928 10.2639C30.0077 10.6173 30.1623 10.9502 30.4227 11.1895L30.9133 11.6408C31.2073 11.9075 31.4707 12.1742 31.7207 12.4528L32.1667 12.9482C32.4029 13.2116 32.7346 13.3698 33.088 13.3875H33.1593C33.4883 13.3878 33.8055 13.2657 34.0493 13.0448L35.0407 12.1548ZM33.1573 12.0562L32.7107 11.5602C32.4327 11.2515 32.14 10.9568 31.816 10.6588L31.3247 10.2082L32.2267 9.22551L32.7173 9.67818C33.072 10.0028 33.3947 10.3268 33.7027 10.6688L34.1487 11.1642L33.1573 12.0562Z" fill="#060B56"/>
<path d="M39.9333 21.9048C39.9123 21.5512 39.7508 21.2207 39.4847 20.9868C39.2194 20.7528 38.8725 20.633 38.5193 20.6535L37.1893 20.7368C36.8363 20.7588 36.5065 20.9201 36.2724 21.1853C36.0383 21.4505 35.9192 21.7978 35.9413 22.1508L35.9833 22.8175C35.994 22.9888 35.9987 23.1608 35.9987 23.3322C35.9987 23.5262 35.9933 23.7202 35.9827 23.9082L35.9433 24.5748C35.9222 24.9287 36.0429 25.2764 36.2787 25.5411C36.5145 25.8059 36.846 25.9658 37.2 25.9855L38.5333 26.0642H38.612C39.319 26.0654 39.904 25.5146 39.9453 24.8088L39.9847 24.1422C40 23.8755 40.008 23.6028 40.008 23.3308C40.008 23.0762 39.9993 22.8228 39.9847 22.5655L39.9333 21.9048ZM38.646 24.0668L38.6067 24.7335L37.2733 24.6542L37.3127 23.9875C37.3247 23.7735 37.3313 23.5535 37.3313 23.3335C37.3313 23.1335 37.3253 22.9335 37.3133 22.7335L37.2713 22.0668L38.6047 21.9835L38.6467 22.6502C38.66 22.8775 38.6673 23.1048 38.6673 23.3335C38.6667 23.5808 38.66 23.8275 38.646 24.0668Z" fill="#060B56"/>
<path d="M34.5727 16.7336C34.7355 17.0751 34.8808 17.4246 35.008 17.7809L35.236 18.4069C35.4893 19.0976 36.2543 19.4527 36.9453 19.2002L38.198 18.7422C38.8896 18.4897 39.2456 17.7245 38.9933 17.0329L38.7647 16.4069C38.5913 15.9244 38.394 15.4509 38.1733 14.9882L37.8827 14.3882C37.5621 13.7253 36.7649 13.4478 36.102 13.7682L34.902 14.3489C34.5835 14.5028 34.3392 14.777 34.2229 15.1111C34.1066 15.4452 34.1279 15.8118 34.282 16.1302L34.5727 16.7336ZM36.6827 14.9716L36.9733 15.5716C37.1748 15.9941 37.3551 16.4264 37.5133 16.8669L37.7413 17.4922L36.4887 17.9502L36.2607 17.3242C36.1179 16.9259 35.9552 16.535 35.7733 16.1529L35.4833 15.5529L36.6827 14.9716Z" fill="#060B56"/>
<path d="M25.0113 8.14356L25.642 8.36356C25.9961 8.48911 26.3434 8.63285 26.6827 8.79423L27.288 9.07623C27.9555 9.38637 28.7481 9.09691 29.0587 8.42956L29.6213 7.22023C29.9315 6.55269 29.642 5.76011 28.9747 5.44956L28.3707 5.16756C27.9101 4.95019 27.4388 4.75617 26.9587 4.58623L26.3293 4.36689C25.6342 4.12437 24.8741 4.49116 24.6313 5.18623L24.192 6.44556C23.9495 7.1407 24.3163 7.90084 25.0113 8.14356ZM25.8907 5.62556L26.5193 5.84556C26.9193 5.98423 27.326 6.15289 27.808 6.37889L28.4127 6.66023L27.85 7.86689L28.4547 8.14823L27.246 7.58623C26.8662 7.40547 26.4772 7.24459 26.0807 7.10423L25.4513 6.88423L25.8907 5.62556Z" fill="#060B56"/>
<path d="M11.778 9.11094C12.1116 9.22793 12.4781 9.20681 12.796 9.05228L13.396 8.76294C13.7381 8.5997 14.0884 8.45396 14.4453 8.32628L15.0707 8.09761C15.4032 7.9765 15.674 7.72815 15.8233 7.40728C15.9726 7.08641 15.9882 6.71934 15.8667 6.38694L15.4093 5.13361C15.288 4.80147 15.0396 4.53115 14.7189 4.38212C14.3982 4.23309 14.0315 4.21756 13.6993 4.33894L13.0727 4.56761C12.5911 4.74088 12.1185 4.93824 11.6567 5.15894L11.0567 5.44894C10.7382 5.60287 10.4939 5.87706 10.3776 6.21115C10.2613 6.54525 10.2826 6.91186 10.4367 7.23028L11.0167 8.43028C11.1695 8.74962 11.4436 8.99467 11.778 9.11094ZM12.2367 6.36161C12.6133 6.17961 13.0367 6.00294 13.5313 5.82228L14.1567 5.59361L14.6147 6.84494L13.9873 7.07428C13.5894 7.21714 13.1989 7.38001 12.8173 7.56228L12.2173 7.85228L11.6367 6.65228L12.2367 6.36161Z" fill="#060B56"/>
<path d="M4.05733 24.5149L4.01533 23.8482C4.00467 23.6782 4 23.5062 4 23.3335C4 23.1395 4.00533 22.9455 4.016 22.7575L4.05533 22.0909C4.07647 21.7377 3.95642 21.3907 3.7216 21.1261C3.48679 20.8616 3.15646 20.7011 2.80333 20.6802L1.47 20.6015C1.11552 20.5765 0.76601 20.696 0.500948 20.9327C0.235887 21.1693 0.0778088 21.5032 0.0626667 21.8582L0.0233333 22.5249C0.008 22.7889 0 23.0629 0 23.3335C0 23.5882 0.00866667 23.8415 0.0233333 24.0982L0.0653333 24.7649C0.108964 25.4672 0.690941 26.0148 1.39467 26.0155H1.47867L2.812 25.9322C3.5469 25.8858 4.10505 25.2524 4.05867 24.5175L4.05733 24.5149ZM1.396 24.6815L1.43733 25.3482L1.354 24.0189C1.34067 23.7909 1.33333 23.5635 1.33333 23.3335C1.33333 23.0875 1.34 22.8409 1.354 22.6002L1.39333 21.9335L2.72667 22.0122L2.68733 22.6789C2.67333 22.8949 2.66667 23.1149 2.66667 23.3335C2.66667 23.5335 2.67267 23.7335 2.68467 23.9335L2.72667 24.6002L1.396 24.6815Z" fill="#060B56"/>
<path d="M6.87269 13.3428C7.24561 13.3436 7.60161 13.1873 7.85335 12.9121L8.30535 12.4221C8.57202 12.1275 8.83869 11.8641 9.11602 11.6161L9.61202 11.1708C10.1596 10.6787 10.2047 9.83585 9.71269 9.28813L8.82202 8.29613C8.58611 8.03206 8.25433 7.87338 7.90069 7.85547C7.54775 7.83765 7.20205 7.95984 6.93869 8.19547L6.44469 8.64013C6.07869 8.96747 5.72469 9.3188 5.36202 9.71347L4.91069 10.2035C4.41197 10.7453 4.4469 11.5888 4.98869 12.0875L5.96935 12.9901C6.21521 13.2174 6.53787 13.3434 6.87269 13.3428ZM6.34269 10.6168C6.67602 10.2535 7.00135 9.93147 7.33535 9.63213L7.83002 9.1868L8.72135 10.1788L8.22402 10.6255C7.91669 10.9021 7.62402 11.1948 7.32402 11.5195L6.87335 12.0101L5.89135 11.1061L6.34269 10.6168Z" fill="#060B56"/>
<path d="M11.9653 27.5455L12.7027 25.3335H15.2973L16.0347 27.5441C16.151 27.8939 16.5289 28.0832 16.8787 27.9668C17.2285 27.8505 17.4177 27.4726 17.3013 27.1228L16.398 24.4115V24.4055L14.6367 19.1228C14.5467 18.8492 14.2913 18.6643 14.0033 18.6643C13.7154 18.6643 13.4599 18.8492 13.37 19.1228L11.6067 24.4068V24.4128L10.7033 27.1241C10.587 27.4739 10.7762 27.8518 11.126 27.9681C11.4758 28.0845 11.8537 27.8953 11.97 27.5455H11.9653ZM14 21.4428L14.8527 24.0001H13.1473L14 21.4428Z" fill="#060B56"/>
<path d="M19.3333 28.0001C19.6391 27.9997 19.9053 27.7914 19.9793 27.4947L21.9793 19.4947C22.0433 19.2615 21.9759 19.0119 21.8033 18.8425C21.6306 18.6731 21.3798 18.6106 21.1478 18.679C20.9158 18.7474 20.7391 18.9361 20.686 19.1721L18.686 27.1721C18.597 27.5292 18.8142 27.8909 19.1713 27.9801C19.2243 27.9932 19.2787 27.9999 19.3333 28.0001Z" fill="#060B56"/>
<path d="M26.3333 20.0001C27.2538 20.0001 28 20.7463 28 21.6667C28 22.0349 28.2985 22.3334 28.6667 22.3334C29.0349 22.3334 29.3333 22.0349 29.3333 21.6667C29.3333 20.595 28.7615 19.6046 27.8333 19.0687C26.9051 18.5328 25.7615 18.5328 24.8333 19.0687C23.9051 19.6046 23.3333 20.595 23.3333 21.6667V25.0001C23.3333 26.0719 23.9051 27.0623 24.8333 27.5982C25.7615 28.1341 26.9051 28.1341 27.8333 27.5982C28.7615 27.0623 29.3333 26.0719 29.3333 25.0001C29.3333 24.6319 29.0349 24.3334 28.6667 24.3334C28.2985 24.3334 28 24.6319 28 25.0001C28 25.5955 27.6823 26.1457 27.1667 26.4435C26.651 26.7412 26.0157 26.7412 25.5 26.4435C24.9843 26.1457 24.6667 25.5955 24.6667 25.0001V21.6667C24.6667 21.2247 24.8423 20.8008 25.1548 20.4882C25.4674 20.1757 25.8913 20.0001 26.3333 20.0001Z" fill="#060B56"/>
</g>
<defs>
<clipPath id="clip0_1_1054">
<rect width="40" height="40" fill="white"/>
</clipPath>
</defs>
</svg>
