<svg width="40" height="40" viewBox="0 0 40 40" fill="none" xmlns="http://www.w3.org/2000/svg">
<g clip-path="url(#clip0_1_1210)">
<path d="M11.3333 30.6671H18V33.3338H11.3333V30.6671Z" fill="#1781F8"/>
<path d="M34.6667 6.00012H5.33332C4.96513 6.00012 4.66666 6.2986 4.66666 6.66679V8.00012C4.66666 8.36831 4.96513 8.66679 5.33332 8.66679H34.6667C35.0348 8.66679 35.3333 8.36831 35.3333 8.00012V6.66679C35.3333 6.2986 35.0348 6.00012 34.6667 6.00012Z" fill="#E8EDFC"/>
<path d="M34.6667 6.00012H32.6667C32.8435 6.00012 33.013 6.07036 33.1381 6.19538C33.2631 6.32041 33.3333 6.48998 33.3333 6.66679V8.00012C33.3333 8.17693 33.2631 8.3465 33.1381 8.47153C33.013 8.59655 32.8435 8.66679 32.6667 8.66679H34.6667C34.8435 8.66679 35.013 8.59655 35.1381 8.47153C35.2631 8.3465 35.3333 8.17693 35.3333 8.00012V6.66679C35.3333 6.48998 35.2631 6.32041 35.1381 6.19538C35.013 6.07036 34.8435 6.00012 34.6667 6.00012Z" fill="#1781F8"/>
<path d="M12.6667 3.33366V6.00033H7.33334V3.33366C7.33334 3.15685 7.40358 2.98728 7.52861 2.86225C7.65363 2.73723 7.8232 2.66699 8.00001 2.66699H12C12.1768 2.66699 12.3464 2.73723 12.4714 2.86225C12.5964 2.98728 12.6667 3.15685 12.6667 3.33366Z" fill="#1781F8"/>
<path d="M32.6667 3.33366V6.00033H27.3333V3.33366C27.3333 3.15685 27.4036 2.98728 27.5286 2.86225C27.6536 2.73723 27.8232 2.66699 28 2.66699H32C32.1768 2.66699 32.3464 2.73723 32.4714 2.86225C32.5964 2.98728 32.6667 3.15685 32.6667 3.33366Z" fill="#1781F8"/>
<path d="M32 2.66699H30C30.1768 2.66699 30.3464 2.73723 30.4714 2.86225C30.5964 2.98728 30.6667 3.15685 30.6667 3.33366V6.00033H32.6667V3.33366C32.6667 3.15685 32.5964 2.98728 32.4714 2.86225C32.3464 2.73723 32.1768 2.66699 32 2.66699Z" fill="#1781F8"/>
<path d="M9.99999 17.3335H1.99999C1.26361 17.3335 0.666656 17.9304 0.666656 18.6668V33.3335C0.666656 34.0699 1.26361 34.6668 1.99999 34.6668H9.99999C10.7364 34.6668 11.3333 34.0699 11.3333 33.3335V18.6668C11.3333 17.9304 10.7364 17.3335 9.99999 17.3335Z" fill="#E8EDFC"/>
<path d="M10 17.3335H8C8.3533 17.3346 8.69182 17.4754 8.94164 17.7252C9.19146 17.975 9.33228 18.3135 9.33333 18.6668V33.3335C9.33228 33.6868 9.19146 34.0253 8.94164 34.2751C8.69182 34.525 8.3533 34.6658 8 34.6668H10C10.3533 34.6658 10.6918 34.525 10.9416 34.2751C11.1915 34.0253 11.3323 33.6868 11.3333 33.3335V18.6668C11.3323 18.3135 11.1915 17.975 10.9416 17.7252C10.6918 17.4754 10.3533 17.3346 10 17.3335Z" fill="#1781F8"/>
<path d="M2 34.6669H4.66667V37.3335H2V34.6669Z" fill="#C6D8FB"/>
<path d="M7.33334 34.6669H10V37.3335H7.33334V34.6669Z" fill="#C6D8FB"/>
<path d="M35.3333 29.3337H19.3333C18.597 29.3337 18 29.9307 18 30.6671V36.0004C18 36.7368 18.597 37.3337 19.3333 37.3337H35.3333C36.0697 37.3337 36.6667 36.7368 36.6667 36.0004V30.6671C36.6667 29.9307 36.0697 29.3337 35.3333 29.3337Z" fill="#E8EDFC"/>
<path d="M35.3333 29.3337H33.3333C33.6866 29.3348 34.0252 29.4756 34.275 29.7254C34.5248 29.9753 34.6656 30.3138 34.6667 30.6671V36.0004C34.6656 36.3537 34.5248 36.6922 34.275 36.9421C34.0252 37.1919 33.6866 37.3327 33.3333 37.3337H35.3333C35.6866 37.3327 36.0252 37.1919 36.275 36.9421C36.5248 36.6922 36.6656 36.3537 36.6667 36.0004V30.6671C36.6656 30.3138 36.5248 29.9753 36.275 29.7254C36.0252 29.4756 35.6866 29.3348 35.3333 29.3337Z" fill="#1781F8"/>
<path d="M39.3333 32.6672V34.0005C39.3333 34.1773 39.2631 34.3469 39.1381 34.4719C39.013 34.5969 38.8435 34.6672 38.6667 34.6672H36.6667V32.0005H38.6667C38.8435 32.0005 39.013 32.0707 39.1381 32.1957C39.2631 32.3208 39.3333 32.4903 39.3333 32.6672Z" fill="#C6D8FB"/>
<path d="M34 8.66687V29.3335H19.3333C18.98 29.3346 18.6415 29.4754 18.3917 29.7252C18.1419 29.975 18.0011 30.3136 18 30.6669H11.3333V18.6669C11.3323 18.3136 11.1915 17.975 10.9416 17.7252C10.6918 17.4754 10.3533 17.3346 10 17.3335H6V8.66687H34Z" fill="#C6D8FB"/>
<path d="M16 30.6671H18C18.0011 30.3138 18.1419 29.9753 18.3917 29.7254C18.6415 29.4756 18.98 29.3348 19.3333 29.3337H17.3333C16.98 29.3348 16.6415 29.4756 16.3917 29.7254C16.1419 29.9753 16.0011 30.3138 16 30.6671Z" fill="#1781F8"/>
<path d="M32 8.66687H34V29.3335H32V8.66687Z" fill="#1781F8"/>
<path d="M3.99999 34.6668H1.99999C1.64669 34.6658 1.30817 34.525 1.05835 34.2751C0.808526 34.0253 0.667712 33.6868 0.666656 33.3335V18.6668C0.667712 18.3135 0.808526 17.975 1.05835 17.7252C1.30817 17.4754 1.64669 17.3346 1.99999 17.3335H3.99999C3.64669 17.3346 3.30817 17.4754 3.05835 17.7252C2.80853 17.975 2.66771 18.3135 2.66666 18.6668V33.3335C2.66771 33.6868 2.80853 34.0253 3.05835 34.2751C3.30817 34.525 3.64669 34.6658 3.99999 34.6668Z" fill="white"/>
<path d="M9.33334 3.33366C9.33334 3.15685 9.40358 2.98728 9.52861 2.86225C9.65363 2.73723 9.8232 2.66699 10 2.66699H8.00001C7.8232 2.66699 7.65363 2.73723 7.52861 2.86225C7.40358 2.98728 7.33334 3.15685 7.33334 3.33366V6.00033H9.33334V3.33366Z" fill="white"/>
<path d="M5.33332 8.66679H5.99999V17.3335H7.99999V8.66679H7.33332C7.15651 8.66679 6.98694 8.59655 6.86192 8.47153C6.73689 8.3465 6.66666 8.17693 6.66666 8.00012V6.66679C6.66666 6.48998 6.73689 6.32041 6.86192 6.19538C6.98694 6.07036 7.15651 6.00012 7.33332 6.00012H5.33332C5.15651 6.00012 4.98694 6.07036 4.86192 6.19538C4.73689 6.32041 4.66666 6.48998 4.66666 6.66679V8.00012C4.66666 8.17693 4.73689 8.3465 4.86192 8.47153C4.98694 8.59655 5.15651 8.66679 5.33332 8.66679Z" fill="white"/>
<path d="M0 27.9996H1.33333V33.333H0V27.9996Z" fill="white"/>
<path d="M12 12.6664C12 12.4896 11.9298 12.32 11.8047 12.195C11.6797 12.07 11.5101 11.9997 11.3333 11.9997H10.6667V11.333C10.6667 11.1562 10.5964 10.9867 10.4714 10.8616C10.3464 10.7366 10.1768 10.6664 10 10.6664C9.82319 10.6664 9.65362 10.7366 9.5286 10.8616C9.40357 10.9867 9.33333 11.1562 9.33333 11.333V11.9997H8.66667C8.48986 11.9997 8.32029 12.07 8.19526 12.195C8.07024 12.32 8 12.4896 8 12.6664C8 12.8432 8.07024 13.0128 8.19526 13.1378C8.32029 13.2628 8.48986 13.333 8.66667 13.333H9.33333V13.9997C9.33333 14.1765 9.40357 14.3461 9.5286 14.4711C9.65362 14.5961 9.82319 14.6664 10 14.6664C10.1768 14.6664 10.3464 14.5961 10.4714 14.4711C10.5964 14.3461 10.6667 14.1765 10.6667 13.9997V13.333H11.3333C11.5101 13.333 11.6797 13.2628 11.8047 13.1378C11.9298 13.0128 12 12.8432 12 12.6664Z" fill="#060B56"/>
<path d="M34 32.6666H33.3334V31.9999C33.3334 31.8231 33.2631 31.6535 33.1381 31.5285C33.0131 31.4035 32.8435 31.3333 32.6667 31.3333C32.4899 31.3333 32.3203 31.4035 32.1953 31.5285C32.0703 31.6535 32 31.8231 32 31.9999V32.6666H31.3334C31.1565 32.6666 30.987 32.7368 30.8619 32.8618C30.7369 32.9869 30.6667 33.1564 30.6667 33.3333C30.6667 33.5101 30.7369 33.6796 30.8619 33.8047C30.987 33.9297 31.1565 33.9999 31.3334 33.9999H32V34.6666C32 34.8434 32.0703 35.013 32.1953 35.138C32.3203 35.263 32.4899 35.3333 32.6667 35.3333C32.8435 35.3333 33.0131 35.263 33.1381 35.138C33.2631 35.013 33.3334 34.8434 33.3334 34.6666V33.9999H34C34.1768 33.9999 34.3464 33.9297 34.4714 33.8047C34.5965 33.6796 34.6667 33.5101 34.6667 33.3333C34.6667 33.1564 34.5965 32.9869 34.4714 32.8618C34.3464 32.7368 34.1768 32.6666 34 32.6666Z" fill="#060B56"/>
<path d="M28.6667 13.3331H31.3333C31.5101 13.3331 31.6797 13.2629 31.8047 13.1378C31.9298 13.0128 32 12.8432 32 12.6664C32 12.4896 31.9298 12.32 31.8047 12.195C31.6797 12.07 31.5101 11.9998 31.3333 11.9998H28.6667C28.4899 11.9998 28.3203 12.07 28.1953 12.195C28.0702 12.32 28 12.4896 28 12.6664C28 12.8432 28.0702 13.0128 28.1953 13.1378C28.3203 13.2629 28.4899 13.3331 28.6667 13.3331Z" fill="#060B56"/>
<path d="M23.3333 32.6663H20.6667C20.4899 32.6663 20.3203 32.7365 20.1953 32.8615C20.0702 32.9865 20 33.1561 20 33.3329C20 33.5097 20.0702 33.6793 20.1953 33.8043C20.3203 33.9294 20.4899 33.9996 20.6667 33.9996H23.3333C23.5101 33.9996 23.6797 33.9294 23.8047 33.8043C23.9298 33.6793 24 33.5097 24 33.3329C24 33.1561 23.9298 32.9865 23.8047 32.8615C23.6797 32.7365 23.5101 32.6663 23.3333 32.6663Z" fill="#060B56"/>
<path d="M0.666667 31.3332C1.03486 31.3332 1.33333 31.0347 1.33333 30.6665C1.33333 30.2984 1.03486 29.9999 0.666667 29.9999C0.298477 29.9999 0 30.2984 0 30.6665C0 31.0347 0.298477 31.3332 0.666667 31.3332Z" fill="#060B56"/>
<path d="M3.33333 33.333C3.51014 33.333 3.67971 33.2628 3.80474 33.1378C3.92976 33.0128 4 32.8432 4 32.6664C4.17681 32.6664 4.34638 32.5961 4.4714 32.4711C4.59643 32.3461 4.66667 32.1765 4.66667 31.9997C4.66667 31.8229 4.59643 31.6533 4.4714 31.5283C4.34638 31.4033 4.17681 31.333 4 31.333C4 31.1562 3.92976 30.9867 3.80474 30.8616C3.67971 30.7366 3.51014 30.6664 3.33333 30.6664C3.15652 30.6664 2.98695 30.7366 2.86193 30.8616C2.7369 30.9867 2.66667 31.1562 2.66667 31.333C2.48986 31.333 2.32029 31.4033 2.19526 31.5283C2.07024 31.6533 2 31.8229 2 31.9997C2 32.1765 2.07024 32.3461 2.19526 32.4711C2.32029 32.5961 2.48986 32.6664 2.66667 32.6664C2.66667 32.8432 2.7369 33.0128 2.86193 33.1378C2.98695 33.2628 3.15652 33.333 3.33333 33.333Z" fill="#060B56"/>
<path d="M9.33334 32.6666C9.51015 32.6666 9.67972 32.5963 9.80475 32.4713C9.92977 32.3463 10 32.1767 10 31.9999C10 31.8231 9.92977 31.6535 9.80475 31.5285C9.67972 31.4035 9.51015 31.3333 9.33334 31.3333H8.00001C7.8232 31.3333 7.65363 31.4035 7.52861 31.5285C7.40358 31.6535 7.33334 31.8231 7.33334 31.9999C7.33334 32.1767 7.40358 32.3463 7.52861 32.4713C7.65363 32.5963 7.8232 32.6666 8.00001 32.6666H9.33334Z" fill="#060B56"/>
<path d="M38.6667 31.3332H37.3333V30.6665C37.3333 30.1361 37.1226 29.6274 36.7475 29.2523C36.3725 28.8773 35.8638 28.6665 35.3333 28.6665H34.6667V9.33321C35.0203 9.33321 35.3594 9.19274 35.6095 8.94269C35.8595 8.69264 36 8.3535 36 7.99988V6.66654C36 6.31292 35.8595 5.97378 35.6095 5.72374C35.3594 5.47369 35.0203 5.33321 34.6667 5.33321H33.3333V3.33321C33.3333 2.97959 33.1929 2.64045 32.9428 2.3904C32.6928 2.14035 32.3536 1.99988 32 1.99988H28C27.6464 1.99988 27.3072 2.14035 27.0572 2.3904C26.8071 2.64045 26.6667 2.97959 26.6667 3.33321V5.33321H13.3333V3.33321C13.3333 2.97959 13.1929 2.64045 12.9428 2.3904C12.6928 2.14035 12.3536 1.99988 12 1.99988H8C7.64638 1.99988 7.30724 2.14035 7.05719 2.3904C6.80714 2.64045 6.66667 2.97959 6.66667 3.33321V5.33321H5.33333C4.97971 5.33321 4.64057 5.47369 4.39052 5.72374C4.14048 5.97378 4 6.31292 4 6.66654V7.99988C4 8.3535 4.14048 8.69264 4.39052 8.94269C4.64057 9.19274 4.97971 9.33321 5.33333 9.33321V16.6665H2C1.46957 16.6665 0.960859 16.8773 0.585786 17.2523C0.210714 17.6274 0 18.1361 0 18.6665L0 27.9999C0 28.1767 0.0702379 28.3463 0.195262 28.4713C0.320286 28.5963 0.489856 28.6665 0.666667 28.6665C0.843478 28.6665 1.01305 28.5963 1.13807 28.4713C1.2631 28.3463 1.33333 28.1767 1.33333 27.9999V18.6665C1.33333 18.4897 1.40357 18.3202 1.5286 18.1951C1.65362 18.0701 1.82319 17.9999 2 17.9999H10C10.1768 17.9999 10.3464 18.0701 10.4714 18.1951C10.5964 18.3202 10.6667 18.4897 10.6667 18.6665V33.3332C10.6667 33.51 10.5964 33.6796 10.4714 33.8046C10.3464 33.9296 10.1768 33.9999 10 33.9999H2C1.82319 33.9999 1.65362 33.9296 1.5286 33.8046C1.40357 33.6796 1.33333 33.51 1.33333 33.3332C1.33333 33.1564 1.2631 32.9868 1.13807 32.8618C1.01305 32.7368 0.843478 32.6665 0.666667 32.6665C0.489856 32.6665 0.320286 32.7368 0.195262 32.8618C0.0702379 32.9868 0 33.1564 0 33.3332C0.00170864 33.7454 0.130723 34.147 0.369392 34.483C0.608061 34.8191 0.944728 35.0732 1.33333 35.2105V37.3332C1.33333 37.51 1.40357 37.6796 1.5286 37.8046C1.65362 37.9296 1.82319 37.9999 2 37.9999H4.66667C4.84348 37.9999 5.01305 37.9296 5.13807 37.8046C5.2631 37.6796 5.33333 37.51 5.33333 37.3332V35.3332H6.66667V37.3332C6.66667 37.51 6.73691 37.6796 6.86193 37.8046C6.98695 37.9296 7.15652 37.9999 7.33333 37.9999H10C10.1768 37.9999 10.3464 37.9296 10.4714 37.8046C10.5964 37.6796 10.6667 37.51 10.6667 37.3332V35.2105C10.9455 35.1109 11.1987 34.9507 11.4081 34.7413C11.6175 34.5319 11.7777 34.2787 11.8773 33.9999H17.3333V35.9999C17.3333 36.5303 17.544 37.039 17.9191 37.4141C18.2942 37.7892 18.8029 37.9999 19.3333 37.9999H35.3333C35.8638 37.9999 36.3725 37.7892 36.7475 37.4141C37.1226 37.039 37.3333 36.5303 37.3333 35.9999V35.3332H38.6667C39.0203 35.3332 39.3594 35.1927 39.6095 34.9427C39.8595 34.6926 40 34.3535 40 33.9999V32.6665C40 32.3129 39.8595 31.9738 39.6095 31.7237C39.3594 31.4737 39.0203 31.3332 38.6667 31.3332ZM4 36.6665H2.66667V35.3332H4V36.6665ZM8 36.6665V35.3332H9.33333V36.6665H8ZM28 3.33321H32V5.33321H28V3.33321ZM8 3.33321H12V5.33321H8V3.33321ZM5.33333 6.66654H34.6667V7.99988H5.33333V6.66654ZM10 16.6665H6.66667V9.33321H33.3333V28.6665H19.3333C18.9212 28.6683 18.5196 28.7973 18.1835 29.0359C17.8475 29.2746 17.5934 29.6113 17.456 29.9999H12V18.6665C12 18.1361 11.7893 17.6274 11.4142 17.2523C11.0391 16.8773 10.5304 16.6665 10 16.6665ZM12 32.6665V31.3332H17.3333V32.6665H12ZM36 35.9999C36 36.1767 35.9298 36.3463 35.8047 36.4713C35.6797 36.5963 35.5101 36.6665 35.3333 36.6665H19.3333C19.1565 36.6665 18.987 36.5963 18.8619 36.4713C18.7369 36.3463 18.6667 36.1767 18.6667 35.9999V30.6665C18.6667 30.4897 18.7369 30.3202 18.8619 30.1951C18.987 30.0701 19.1565 29.9999 19.3333 29.9999H35.3333C35.5101 29.9999 35.6797 30.0701 35.8047 30.1951C35.9298 30.3202 36 30.4897 36 30.6665V35.9999ZM38.6667 33.9999H37.3333V32.6665H38.6667V33.9999Z" fill="#060B56"/>
</g>
<defs>
<clipPath id="clip0_1_1210">
<rect width="40" height="40" fill="white"/>
</clipPath>
</defs>
</svg>
