<svg width="40" height="40" viewBox="0 0 40 40" fill="none" xmlns="http://www.w3.org/2000/svg">
<path d="M37.5 12.4999H39.375V11.2499H37.9187L34.9781 4.108C34.1063 1.99238 32.065 0.624878 29.7769 0.624878H19.5956C17.68 0.624878 15.9137 1.5855 14.8725 3.19363L9.6025 11.338L1.07875 13.7743C0.81 13.8505 0.625 14.0961 0.625 14.3749V22.4999C0.625 22.8449 0.904375 23.1249 1.25 23.1249H4.41188C4.72375 25.933 7.10938 28.1249 10 28.1249C12.8906 28.1249 15.2762 25.933 15.5881 23.1249H17.5825L17.92 23.6318C18.8719 25.0593 19.375 26.7211 19.375 28.4374C19.375 30.1536 18.8719 31.8155 17.92 33.243L17.4637 33.928C17.0787 34.5055 16.8756 35.178 16.8756 35.8711C16.875 37.803 18.4469 39.3749 20.3781 39.3749C21.0719 39.3749 21.7444 39.1711 22.3213 38.7868L22.7463 38.5036C23.4469 38.0368 24.205 37.6705 24.9994 37.3993V39.3749H26.2494V36.8749C26.2494 36.6661 26.145 36.4711 25.9713 36.3549L22.5 34.0405V31.8749C22.5 31.5305 22.78 31.2499 23.125 31.2499C23.47 31.2499 23.75 31.5305 23.75 31.8749V33.7499H25V31.8749V25.6249C25 25.2805 25.28 24.9999 25.625 24.9999C25.97 24.9999 26.25 25.2805 26.25 25.6249V26.8749V29.9999H27.5V26.8749V25.6249V24.3749C27.5 24.0305 27.78 23.7499 28.125 23.7499C28.47 23.7499 28.75 24.0305 28.75 24.3749V25.6249V26.8749V29.9999H30V26.8749V25.6249C30 25.2805 30.28 24.9999 30.625 24.9999C30.97 24.9999 31.25 25.2805 31.25 25.6249V28.1249V29.9999H32.5V28.1249C32.5 27.7805 32.78 27.4999 33.125 27.4999C33.47 27.4999 33.75 27.7805 33.75 28.1249V34.7411L32.6831 35.808C32.5656 35.9249 32.5 36.0843 32.5 36.2499V39.3749H33.75V38.6674L33.9281 38.7861C34.5056 39.1711 35.1775 39.3749 35.8719 39.3749C37.8031 39.3749 39.375 37.803 39.375 35.8718C39.375 35.178 39.1719 34.5061 38.7869 33.9286L38.3306 33.2436C37.3781 31.8155 36.875 30.1536 36.875 28.4374C36.875 26.7211 37.3781 25.0593 38.33 23.6318L38.7862 22.9468C39.1712 22.3693 39.3744 21.6968 39.3744 21.0036C39.375 19.0718 37.8031 17.4999 35.8719 17.4999C35.1781 17.4999 34.5056 17.7036 33.9287 18.088L33.5037 18.3711C31.9056 19.4368 30.0456 19.9999 28.125 19.9999C26.2044 19.9999 24.3444 19.4368 22.7469 18.3718L22.3219 18.0886C21.7444 17.7036 21.0725 17.4999 20.3781 17.4999C18.4469 17.4999 16.875 19.0718 16.875 21.003C16.875 21.2999 16.92 21.5911 16.9925 21.8749H15.5881C15.2762 19.0668 12.8906 16.8749 10 16.8749C7.10938 16.8749 4.72375 19.0668 4.41188 21.8749H1.875V18.1249H3.75C4.09562 18.1249 4.375 17.8449 4.375 17.4999V14.1318L10.1713 12.4755C10.3169 12.4343 10.4425 12.3411 10.5244 12.2143L15.9219 3.873C16.7319 2.62175 18.105 1.87488 19.5956 1.87488H29.7769C31.5569 1.87488 33.145 2.93863 33.8225 4.58425L36.9225 12.113C37.0181 12.3468 37.2469 12.4999 37.5 12.4999ZM20.3781 18.7499C20.8244 18.7499 21.2563 18.8805 21.6281 19.128L22.0531 19.4111C23.8575 20.6143 25.9569 21.2499 28.125 21.2499C30.2931 21.2499 32.3925 20.6143 34.1969 19.4118L34.6219 19.1286C34.9938 18.8811 35.4256 18.7505 35.8719 18.7505C37.1144 18.7499 38.125 19.7605 38.125 21.003C38.125 21.4493 37.9944 21.8818 37.7469 22.253L37.2906 22.938C36.2006 24.5718 35.625 26.473 35.625 28.4374C35.625 30.4018 36.2006 32.303 37.29 33.9368L37.7463 34.6218C37.9938 34.993 38.1244 35.4255 38.1244 35.8718C38.125 37.1143 37.1144 38.1249 35.8719 38.1249C35.4256 38.1249 34.9938 37.9943 34.6219 37.7468L34.1969 37.4636C34.0513 37.3668 33.8994 37.2811 33.75 37.1918V36.5093L34.8169 35.4424C34.9344 35.3249 35 35.1655 35 34.9999V28.1249C35 27.0911 34.1587 26.2499 33.125 26.2499C32.905 26.2499 32.6963 26.2949 32.5 26.3649V25.6249C32.5 24.5911 31.6588 23.7499 30.625 23.7499C30.3781 23.7499 30.1437 23.8005 29.9275 23.8874C29.7119 23.0905 28.9894 22.4999 28.125 22.4999C27.2606 22.4999 26.5388 23.0905 26.3225 23.8874C26.1063 23.8005 25.8719 23.7499 25.625 23.7499C24.5912 23.7499 23.75 24.5911 23.75 25.6249V30.1149C23.5537 30.0449 23.345 29.9999 23.125 29.9999C22.0912 29.9999 21.25 30.8411 21.25 31.8749V34.3749C21.25 34.5836 21.3544 34.7786 21.5281 34.8949L23.905 36.4793C23.26 36.7493 22.6381 37.073 22.0531 37.463L21.6281 37.7461C21.2563 37.9936 20.8244 38.1243 20.3781 38.1243C19.1356 38.1249 18.125 37.1143 18.125 35.8718C18.125 35.4255 18.2556 34.993 18.5031 34.6218L18.9594 33.9368C20.0494 32.303 20.625 30.4018 20.625 28.4374C20.625 26.473 20.0494 24.5718 18.96 22.938L18.5037 22.253C18.2563 21.8818 18.1256 21.4493 18.1256 21.003C18.125 19.7605 19.1356 18.7499 20.3781 18.7499ZM10 18.1249C12.4119 18.1249 14.375 20.0874 14.375 22.4999C14.375 24.9124 12.4119 26.8749 10 26.8749C7.58813 26.8749 5.625 24.9124 5.625 22.4999C5.625 20.0874 7.58813 18.1249 10 18.1249ZM3.125 16.8749H1.875V14.8461L3.125 14.4893V16.8749Z" fill="#060B56"/>
<path d="M10 25.6248C11.7231 25.6248 13.125 24.2229 13.125 22.4998C13.125 20.7766 11.7231 19.3748 10 19.3748C8.27688 19.3748 6.875 20.7766 6.875 22.4998C6.875 24.2229 8.27688 25.6248 10 25.6248ZM10 20.6248C11.0338 20.6248 11.875 21.466 11.875 22.4998C11.875 23.5335 11.0338 24.3748 10 24.3748C8.96625 24.3748 8.125 23.5335 8.125 22.4998C8.125 21.466 8.96625 20.6248 10 20.6248Z" fill="#060B56"/>
<path d="M34.89 12.2285C35.0069 12.0591 35.0325 11.8429 34.9581 11.6504L32.45 5.12788C31.9887 3.92976 30.8162 3.12476 29.5331 3.12476H20.1469C19.0537 3.12476 18.0587 3.68101 17.485 4.61226L13.2175 11.5473C13.0987 11.7404 13.0937 11.9816 13.2044 12.1798C13.315 12.3779 13.5237 12.4998 13.75 12.4998H34.375C34.5806 12.4998 34.7738 12.3985 34.89 12.2285ZM18.55 5.26726C18.8937 4.70851 19.4912 4.37476 20.1469 4.37476H23.75V11.2498H14.8681L18.55 5.26726ZM25 11.2498V4.37476H29.5331C30.3025 4.37476 31.0063 4.85788 31.2831 5.57663L33.465 11.2498H25Z" fill="#060B56"/>
<path d="M22.5 13.7498H25V14.9998H22.5V13.7498Z" fill="#060B56"/>
<path d="M32.5 13.7498H35V14.9998H32.5V13.7498Z" fill="#060B56"/>
<path d="M8.75 36.2498C10.1288 36.2498 11.25 37.371 11.25 38.7498C11.25 39.0948 11.5294 39.3748 11.875 39.3748C12.2206 39.3748 12.5 39.0948 12.5 38.7498C12.5 37.371 13.6213 36.2498 15 36.2498C15.3456 36.2498 15.625 35.9698 15.625 35.6248C15.625 35.2798 15.3456 34.9998 15 34.9998C13.6213 34.9998 12.5 33.8785 12.5 32.4998C12.5 32.1548 12.2206 31.8748 11.875 31.8748C11.5294 31.8748 11.25 32.1548 11.25 32.4998C11.25 33.8785 10.1288 34.9998 8.75 34.9998C8.40438 34.9998 8.125 35.2798 8.125 35.6248C8.125 35.9698 8.40438 36.2498 8.75 36.2498ZM11.875 34.5704C12.1525 34.9879 12.5119 35.3466 12.9294 35.6248C12.5119 35.9023 12.1531 36.2616 11.875 36.6791C11.5975 36.2616 11.2381 35.9029 10.8206 35.6248C11.2381 35.3473 11.5975 34.9879 11.875 34.5704Z" fill="#060B56"/>
<path d="M7.5 30.6248C6.12125 30.6248 5 29.5035 5 28.1248C5 27.7798 4.72062 27.4998 4.375 27.4998C4.02938 27.4998 3.75 27.7798 3.75 28.1248C3.75 29.5035 2.62875 30.6248 1.25 30.6248C0.904375 30.6248 0.625 30.9048 0.625 31.2498C0.625 31.5948 0.904375 31.8748 1.25 31.8748C2.62875 31.8748 3.75 32.996 3.75 34.3748C3.75 34.7198 4.02938 34.9998 4.375 34.9998C4.72062 34.9998 5 34.7198 5 34.3748C5 32.996 6.12125 31.8748 7.5 31.8748C7.84562 31.8748 8.125 31.5948 8.125 31.2498C8.125 30.9048 7.84562 30.6248 7.5 30.6248ZM4.375 32.3041C4.0975 31.8866 3.73813 31.5273 3.32063 31.2498C3.73813 30.9723 4.0975 30.6129 4.375 30.1954C4.6525 30.6129 5.01188 30.9723 5.42938 31.2498C5.01188 31.5273 4.6525 31.8866 4.375 32.3041Z" fill="#060B56"/>
<path d="M1.25 4.99988C2.62875 4.99988 3.75 6.12113 3.75 7.49988C3.75 7.84488 4.02938 8.12488 4.375 8.12488C4.72062 8.12488 5 7.84488 5 7.49988C5 6.12113 6.12125 4.99988 7.5 4.99988C7.84562 4.99988 8.125 4.71988 8.125 4.37488C8.125 4.02988 7.84562 3.74988 7.5 3.74988C6.12125 3.74988 5 2.62863 5 1.24988C5 0.904878 4.72062 0.624878 4.375 0.624878C4.02938 0.624878 3.75 0.904878 3.75 1.24988C3.75 2.62863 2.62875 3.74988 1.25 3.74988C0.904375 3.74988 0.625 4.02988 0.625 4.37488C0.625 4.71988 0.904375 4.99988 1.25 4.99988ZM4.375 3.3205C4.6525 3.738 5.01188 4.09738 5.42938 4.37488C5.01188 4.65238 4.6525 5.01175 4.375 5.42925C4.0975 5.01175 3.73813 4.65238 3.32063 4.37488C3.73813 4.09738 4.0975 3.738 4.375 3.3205Z" fill="#060B56"/>
</svg>
