<svg width="40" height="40" viewBox="0 0 40 40" fill="none" xmlns="http://www.w3.org/2000/svg">
<g clip-path="url(#clip0_1_1250)">
<path d="M25.7648 1.54585C25.325 1.10601 24.7289 0.859131 24.107 0.859131H3.20312C1.90859 0.859131 0.859375 1.90835 0.859375 3.20288V36.0451L16.4844 37.5779L30.2555 36.0154C31.4969 32.1732 34.9656 29.3318 39.1406 29.0138V14.1701L25.7648 1.54585Z" fill="#E8EDFC"/>
<path d="M34.4531 18.0465C35.3164 18.0465 36.0156 18.7457 36.0156 19.609C36.0156 20.4715 35.3156 21.1715 34.4531 21.1715H29.7656C28.9023 21.1715 28.2031 20.4723 28.2031 19.609C28.2031 18.7465 28.9031 18.0465 29.7656 18.0465H34.4531Z" fill="#E8EDFC"/>
<path d="M14.6016 36.0309L30.2555 36.0153L29.7656 39.1403H13.8281L13.4896 37.734L14.6016 36.0309Z" fill="#E8EDFC"/>
<path d="M23.5156 3.98401H3.98438V10.234L20 12.3434L27.7102 7.89026L23.5156 3.98401Z" fill="#E8EDFC"/>
<path d="M16.4844 17.2653V22.734H14.9219V26.6403C13.8386 26.6403 12.8794 26.6403 11.7969 26.6403V22.734H10.2344V17.2653H16.4844Z" fill="#E8EDFC"/>
<path d="M0.859375 36.0449L11.3148 36.0348L12.1094 37.8903L10.625 39.1403H3.20312C1.90859 39.1403 0.859375 38.091 0.859375 36.7965V36.0449Z" fill="#E8EDFC"/>
<path d="M34.4531 14.1699H3.98438V10.234H5.9375C6.58437 10.234 7.10938 9.70901 7.10938 9.06213C7.10938 8.41635 7.63438 7.89026 8.28125 7.89026H27.7102L34.4531 14.1699Z" fill="#1781F8"/>
<path d="M12.1875 32.1092L13.8021 30.9634L15.5773 32.1092C15.4995 32.4225 13.8412 39.0865 13.8281 39.1405H10.625C10.625 39.1405 12.1854 32.1199 12.1875 32.1092Z" fill="#E8EDFC"/>
<path d="M10.9635 27.4215V30.5465H7.10938C7.10938 29.4535 7.10938 28.5145 7.10938 27.4215H10.9635Z" fill="#E8EDFC"/>
<path d="M20.3906 25.859L21.0677 29.1924L20.3906 32.109C18.2256 32.109 12.2447 32.109 10.2344 32.109C10.2344 30.1589 10.2344 27.6908 10.2344 25.859H20.3906Z" fill="#1781F8"/>
<path d="M23.5156 27.4215V30.1559L20.3906 32.109V25.859L23.5156 27.4215Z" fill="#E8EDFC"/>
<path d="M23.5156 3.20288H3.98438C3.55297 3.20288 3.20312 3.55272 3.20312 3.98413V14.1701C3.20312 14.6015 3.55297 14.9513 3.98438 14.9513H34.4531C34.7741 14.9513 35.0626 14.7549 35.1802 14.4562C35.2977 14.1574 35.2205 13.8171 34.9856 13.5983L24.0481 3.41241C23.9034 3.27772 23.7132 3.20288 23.5156 3.20288ZM23.2081 4.76538L25.7248 7.10913H8.28125C7.19797 7.10913 6.32812 7.98765 6.32812 9.06226C6.32812 9.27765 6.15289 9.45288 5.9375 9.45288H4.76562V4.76538H23.2081ZM4.76562 13.3888V11.0154H5.9375C7.01445 11.0154 7.89062 10.1392 7.89062 9.06226C7.89062 8.85312 8.06094 8.67163 8.28125 8.67163H27.4027L32.4679 13.3888H4.76562Z" fill="#060B56"/>
<path d="M39.6769 13.602L26.3086 0.984878C25.7192 0.399956 24.9379 0.0780029 24.107 0.0780029H3.20312C1.48 0.0780029 0.078125 1.47988 0.078125 3.203V36.7968C0.078125 38.5199 1.48 39.9218 3.20312 39.9218H29.7656C30.197 39.9218 30.5469 39.5719 30.5469 39.1405C30.5469 34.2875 34.2466 30.1702 39.2 29.7929C39.6073 29.762 39.9219 29.4225 39.9219 29.0139V14.1702C39.9219 13.9551 39.8332 13.7496 39.6769 13.602ZM1.64211 36.8257L10.341 36.8172C10.2055 37.4268 10.0846 37.9711 9.99836 38.3593H3.20312C2.35133 38.3593 1.65773 37.6739 1.64211 36.8257ZM7.89062 28.203H9.45312V29.7655H7.89062V28.203ZM11.0156 26.6405H12.9688V28.203C12.9688 28.6344 13.3186 28.9843 13.75 28.9843C14.1814 28.9843 14.5312 28.6344 14.5312 28.203V26.6405H16.0938V28.203C16.0938 28.6344 16.4436 28.9843 16.875 28.9843C17.3064 28.9843 17.6562 28.6344 17.6562 28.203V26.6405H19.6094V31.328C15.6611 31.328 14.884 31.328 11.0156 31.328V26.6405ZM14.1406 22.7343V25.078H12.5781V22.7343C12.5781 22.3028 12.2283 21.953 11.7969 21.953H11.0156V18.0468H15.7031V21.953H14.9219C14.4905 21.953 14.1406 22.3028 14.1406 22.7343ZM12.8143 32.8905H14.5779C14.3484 33.8126 13.3788 37.7091 13.217 38.3593H11.5989C12.1516 35.8714 12.7531 33.1662 12.8143 32.8905ZM14.8273 38.3593C14.9341 37.93 15.0682 37.3912 15.2123 36.8118C17.6589 36.8093 26.2167 36.8007 29.2365 36.7978C29.1256 37.3059 29.0495 37.8271 29.0119 38.3593H14.8273ZM38.3594 28.3139C34.3845 28.882 31.0967 31.5878 29.7027 35.2348C27.4062 35.2371 18.593 35.2459 15.6013 35.2489C15.8309 34.3264 16.0478 33.4545 16.1881 32.8904H20.3906C20.5292 32.8904 20.6805 32.8491 20.8047 32.7717L23.9297 30.8186C24.1581 30.6757 24.2969 30.4254 24.2969 30.156V27.4217C24.2969 27.1257 24.1297 26.8553 23.865 26.7229L20.74 25.1604C20.6408 25.1109 20.5128 25.078 20.3906 25.078H15.7031V23.5155H16.4844C16.9158 23.5155 17.2656 23.1657 17.2656 22.7343V17.2655C17.2656 16.8341 16.9158 16.4843 16.4844 16.4843H10.2344C9.80297 16.4843 9.45312 16.8341 9.45312 17.2655V22.7343C9.45312 23.1657 9.80297 23.5155 10.2344 23.5155H11.0156V25.078H10.2344C9.80297 25.078 9.45312 25.4278 9.45312 25.8593V26.6405H7.10938C6.67797 26.6405 6.32812 26.9903 6.32812 27.4218V28.203H4.76562V25.8593C4.76562 25.4278 4.41578 25.078 3.98438 25.078C3.55297 25.078 3.20312 25.4278 3.20312 25.8593V32.1093C3.20312 32.5407 3.55297 32.8905 3.98438 32.8905C4.41578 32.8905 4.76562 32.5407 4.76562 32.1093V29.7655H6.32812V30.5468C6.32812 30.9782 6.67797 31.328 7.10938 31.328H9.45312V32.1093C9.45312 32.5407 9.80297 32.8905 10.2344 32.8905H11.2136C11.0749 33.5146 10.8835 34.3758 10.6883 35.2544C8.87758 35.2561 3.63383 35.2612 1.64062 35.2632V3.203C1.64062 2.34144 2.34156 1.6405 3.20312 1.6405H24.107C24.5246 1.6405 24.9171 1.80308 25.2123 2.09839C25.2277 2.11371 24.7072 1.62191 38.3593 14.5071V28.3139H38.3594ZM22.7344 27.9046V29.7231L21.1719 30.6996V27.1233L22.7344 27.9046Z" fill="#060B56"/>
<path d="M29.7656 17.2654C28.4707 17.2654 27.4219 18.3142 27.4219 19.6091C27.4219 20.9015 28.4733 21.9529 29.7656 21.9529H34.4531C35.748 21.9529 36.7969 20.9041 36.7969 19.6091C36.7969 18.3168 35.7455 17.2654 34.4531 17.2654H29.7656ZM35.2344 19.6091C35.2344 20.0405 34.8844 20.3904 34.4531 20.3904H29.7656C29.3348 20.3904 28.9844 20.0399 28.9844 19.6091C28.9844 19.1778 29.3344 18.8279 29.7656 18.8279H34.4531C34.8839 18.8279 35.2344 19.1783 35.2344 19.6091Z" fill="#060B56"/>
<path d="M27.0045 26.5507L28.4888 25.7694C28.8707 25.5685 29.0174 25.096 28.8163 24.7142C28.6153 24.3324 28.1429 24.1857 27.7611 24.3867L26.2767 25.168C25.8949 25.3689 25.7482 25.8414 25.9492 26.2232C26.1495 26.6034 26.6211 26.7523 27.0045 26.5507Z" fill="#060B56"/>
<path d="M28.4889 32.1989L27.0045 31.4177C26.6225 31.2167 26.1502 31.3634 25.9492 31.7452C25.7483 32.127 25.8949 32.5995 26.2767 32.8004L27.7611 33.5817C28.1435 33.7829 28.6157 33.6353 28.8163 33.2542C29.0174 32.8725 28.8707 32.4 28.4889 32.1989Z" fill="#060B56"/>
<path d="M29.7656 28.2029H27.4219C26.9905 28.2029 26.6406 28.5527 26.6406 28.9841C26.6406 29.4155 26.9905 29.7654 27.4219 29.7654H29.7656C30.197 29.7654 30.5469 29.4155 30.5469 28.9841C30.5469 28.5527 30.197 28.2029 29.7656 28.2029Z" fill="#060B56"/>
</g>
<defs>
<clipPath id="clip0_1_1250">
<rect width="40" height="40" fill="white"/>
</clipPath>
</defs>
</svg>
