<svg width="40" height="40" viewBox="0 0 40 40" fill="none" xmlns="http://www.w3.org/2000/svg">
<path fill-rule="evenodd" clip-rule="evenodd" d="M33.8375 22.3938L30.4617 16.1446C30.2125 15.6821 29.768 15.4172 29.2422 15.4172H27.4164C27.3094 16.6141 26.7906 17.768 25.8945 18.6649C24.8703 19.6891 23.5242 20.2016 22.1781 20.2016C20.8328 20.2016 19.4867 19.6891 18.4625 18.6649C17.557 17.7594 17.0523 16.6032 16.9469 15.4172H12.0102C11.4852 15.4172 11.0406 15.6821 10.7906 16.1446L7.41563 22.3938H33.8375Z" fill="#2A7ABD"/>
<path fill-rule="evenodd" clip-rule="evenodd" d="M35.9539 20.6702C35.4789 20.6702 35.0922 21.0569 35.0922 21.5319V22.3936H37.1852C37.6602 22.3936 38.0469 22.0069 38.0469 21.5319C38.0469 21.0569 37.6602 20.6702 37.1852 20.6702H35.9539Z" fill="#1D5074"/>
<path fill-rule="evenodd" clip-rule="evenodd" d="M36.7211 25.468C36.7211 24.2899 35.7625 23.3313 34.5844 23.3313H6.66875C5.49063 23.3313 4.53125 24.2899 4.53125 25.468V32.1438H4.53203V32.1454C4.53281 33.3227 5.49063 34.2805 6.66875 34.2805H14.3273L15.5727 31.8407C15.6523 31.6836 15.8141 31.5852 15.9898 31.5852H25.2625C25.4391 31.5852 25.6 31.6836 25.6805 31.8407L26.925 34.2805H34.5844C35.7625 34.2805 36.7211 33.3219 36.7211 32.1438V25.468ZM10.3586 26.5297L11.0508 27.9422C11.1219 28.0875 11.1133 28.2594 11.0273 28.3969C10.9422 28.5344 10.7914 28.618 10.6297 28.618H8.07812C7.06563 28.618 6.24219 27.7946 6.24219 26.7821V25.4149C6.24219 25.2586 6.32031 25.1125 6.45 25.0258C6.57969 24.9391 6.74375 24.9219 6.88828 24.9813L10.1156 26.304C10.2219 26.3461 10.3086 26.4274 10.3586 26.5297ZM34.3641 24.9797C34.5086 24.9204 34.6734 24.9368 34.8031 25.0243C34.9328 25.111 35.0109 25.2571 35.0109 25.4133V26.7805C35.0109 27.793 34.1867 28.6165 33.1742 28.6165H30.6227C30.4609 28.6165 30.3109 28.5329 30.225 28.3954C30.1398 28.2579 30.1305 28.0868 30.2023 27.9407L30.8937 26.5282C30.9445 26.425 31.0305 26.3446 31.1367 26.3008L34.3641 24.9797ZM14.4883 27.6602H26.7648C27.0234 27.6602 27.2336 27.8704 27.2336 28.129C27.2336 28.3883 27.0234 28.5977 26.7648 28.5977H14.4883C14.2289 28.5977 14.0195 28.3883 14.0195 28.129C14.0195 27.8704 14.2289 27.6602 14.4883 27.6602ZM9.2625 29.5821C10.275 29.5821 11.0984 30.4055 11.0984 31.418C11.0984 32.4305 10.275 33.254 9.2625 33.254H8.07812C7.06563 33.254 6.24219 32.4305 6.24219 31.418C6.24219 30.4055 7.06563 29.5821 8.07812 29.5821H9.2625ZM33.1742 29.5821C34.1867 29.5821 35.0109 30.4055 35.0109 31.418C35.0109 32.4305 34.1867 33.254 33.1742 33.254H31.9906C30.9781 33.254 30.1539 32.4305 30.1539 31.418C30.1539 30.4055 30.9781 29.5821 31.9906 29.5821H33.1742Z" fill="#1D5074"/>
<path fill-rule="evenodd" clip-rule="evenodd" d="M34.0734 26.7814V26.1127L31.657 27.1025L31.3742 27.6799H33.1742C33.6703 27.6799 34.0734 27.2767 34.0734 26.7814Z" fill="#2A7ABD"/>
<path fill-rule="evenodd" clip-rule="evenodd" d="M33.1742 30.519H31.9906C31.4945 30.519 31.0914 30.9222 31.0914 31.4175C31.0914 31.9128 31.4945 32.3159 31.9906 32.3159H33.1742C33.6703 32.3159 34.0734 31.9136 34.0734 31.4175C34.0734 30.9229 33.6703 30.519 33.1742 30.519Z" fill="#2A7ABD"/>
<path fill-rule="evenodd" clip-rule="evenodd" d="M24.9758 32.5227H16.2773L15.3797 34.2797H25.8727L24.9758 32.5227Z" fill="#2A7ABD"/>
<path fill-rule="evenodd" clip-rule="evenodd" d="M34.5844 35.2179H29.7031V36.0421C29.7031 36.5101 30.0844 36.8913 30.5524 36.8913H35.8719C36.3399 36.8913 36.7211 36.5101 36.7211 36.0421V34.3507C36.1672 34.8874 35.4141 35.2179 34.5844 35.2179Z" fill="#1D5074"/>
<path fill-rule="evenodd" clip-rule="evenodd" d="M11.55 36.0421V35.2179H6.66875C5.83907 35.2179 5.08516 34.8874 4.53204 34.3507V36.0421C4.53204 36.5101 4.9125 36.8913 5.38125 36.8913H10.7C11.1688 36.8913 11.55 36.5101 11.55 36.0421Z" fill="#1D5074"/>
<path fill-rule="evenodd" clip-rule="evenodd" d="M8.07812 32.3157H9.2625C9.75781 32.3157 10.1609 31.9133 10.1609 31.4172C10.1609 30.9219 9.75781 30.5188 9.2625 30.5188H8.07812C7.58281 30.5188 7.17969 30.9219 7.17969 31.4172C7.17969 31.9133 7.58281 32.3157 8.07812 32.3157Z" fill="#2A7ABD"/>
<path fill-rule="evenodd" clip-rule="evenodd" d="M8.07812 27.6796H9.87813L9.59531 27.1023L7.17969 26.1124V26.7812C7.17969 27.2765 7.58281 27.6796 8.07812 27.6796Z" fill="#2A7ABD"/>
<path fill-rule="evenodd" clip-rule="evenodd" d="M4.06719 22.3936H6.16016V21.5319C6.16016 21.0569 5.77422 20.6702 5.29844 20.6702H4.06719C3.59219 20.6702 3.20547 21.0569 3.20547 21.5319C3.20547 22.0069 3.59219 22.3936 4.06719 22.3936Z" fill="#1D5074"/>
<path fill-rule="evenodd" clip-rule="evenodd" d="M6.60391 12.2263C6.82032 12.5888 7.11563 12.8833 7.47813 13.1005C7.11563 13.3177 6.82032 13.6122 6.60391 13.9747C6.38672 13.6122 6.09141 13.3177 5.72891 13.1005C6.09141 12.8833 6.38672 12.5888 6.60391 12.2263ZM5.93985 14.7489L6.16563 15.3427C6.23438 15.5247 6.4086 15.645 6.60391 15.645C6.79844 15.645 6.97266 15.5247 7.04219 15.3427L7.26719 14.7489C7.44688 14.2755 7.77813 13.9443 8.25157 13.7646L8.8461 13.5396C9.02813 13.4708 9.14844 13.2958 9.14844 13.1013C9.14844 12.9068 9.02813 12.7318 8.8461 12.663L8.25157 12.438C7.77813 12.2583 7.44688 11.9271 7.26719 11.4536L7.04219 10.8591C6.97266 10.6771 6.79844 10.5568 6.60391 10.5568C6.4086 10.5568 6.23438 10.6771 6.16563 10.8591L5.93985 11.4536C5.76016 11.9271 5.42891 12.2583 4.95547 12.438L4.36094 12.663C4.17891 12.7325 4.0586 12.9068 4.0586 13.1013C4.0586 13.2966 4.17891 13.4708 4.36094 13.5396L4.95547 13.7646C5.42891 13.9435 5.76016 14.2747 5.93985 14.7489Z" fill="#2A7ABD"/>
<path fill-rule="evenodd" clip-rule="evenodd" d="M10.4734 8.81699C10.9625 9.00293 11.3047 9.34434 11.4906 9.83418L11.7219 10.4436C11.7906 10.6256 11.9649 10.7459 12.1602 10.7459C12.3547 10.7459 12.5289 10.6256 12.5984 10.4436L12.8297 9.83418C13.0149 9.34512 13.357 9.00293 13.8461 8.81699L14.4555 8.58574C14.6383 8.51621 14.7586 8.34199 14.7586 8.14746C14.7586 7.95215 14.6383 7.77871 14.4555 7.70918L13.8461 7.47793C13.357 7.29277 13.0149 6.95059 12.8297 6.46152L12.5984 5.85215C12.5289 5.67012 12.3547 5.5498 12.1602 5.5498C11.9649 5.5498 11.7906 5.67012 11.7219 5.85215L11.4906 6.46152C11.3047 6.95059 10.9625 7.29277 10.4734 7.47793L9.86407 7.70918C9.68204 7.77871 9.56173 7.95293 9.56173 8.14746C9.56173 8.34199 9.68204 8.51699 9.86407 8.58574L10.4734 8.81699ZM12.1602 9.06777C11.9336 8.68418 11.6227 8.37324 11.2391 8.14746C11.6227 7.92168 11.9336 7.61074 12.1602 7.22637C12.3859 7.60996 12.6969 7.9209 13.0805 8.14746C12.6969 8.37324 12.3859 8.68418 12.1602 9.06777Z" fill="#2A7ABD"/>
<path fill-rule="evenodd" clip-rule="evenodd" d="M7.15235 6.65554C7.33438 6.58679 7.45469 6.41179 7.45469 6.21726C7.45469 6.02273 7.33438 5.84773 7.15235 5.77898L6.41016 5.49695C5.78516 5.26023 5.34844 4.82351 5.11173 4.19851L4.8297 3.45554C4.76095 3.27351 4.58595 3.1532 4.39141 3.1532C4.19688 3.1532 4.02266 3.27351 3.95313 3.45554L3.67188 4.19929C3.43438 4.82351 2.99766 5.26023 2.37345 5.49773L1.63048 5.77976C1.44845 5.84773 1.32813 6.02273 1.32813 6.21726C1.32813 6.41257 1.44845 6.58679 1.63048 6.65554L2.37345 6.93757C2.99766 7.17429 3.43438 7.61101 3.67188 8.23601L3.95313 8.97898C4.02266 9.16101 4.19688 9.28132 4.39141 9.28132C4.58595 9.28132 4.76095 9.16101 4.8297 8.97898L5.11173 8.23601C5.34844 7.61179 5.78516 7.17507 6.41016 6.93757L7.15235 6.65554ZM5.72501 6.21726C5.14376 6.51648 4.69063 6.9696 4.39141 7.55085C4.0922 6.9696 3.63907 6.51648 3.05782 6.21726C3.63907 5.91804 4.0922 5.46492 4.39141 4.88367C4.69063 5.46492 5.14376 5.91804 5.72501 6.21726Z" fill="#2A7ABD"/>
<path fill-rule="evenodd" clip-rule="evenodd" d="M23.5289 10.8453C21.9977 10.3382 20.2945 10.725 19.125 11.8953C17.4414 13.5789 17.4414 16.3179 19.125 18.0015C20.8086 19.6851 23.5484 19.6851 25.2313 18.0015C26.4016 16.832 26.7883 15.1296 26.2813 13.5976L23.4813 16.3976C23.1016 16.7773 22.6031 16.9664 22.1055 16.9664C21.607 16.9664 21.1086 16.7765 20.7289 16.3976C20.3625 16.0312 20.1609 15.5421 20.1609 15.021C20.1609 14.5 20.3625 14.0117 20.7289 13.6453L23.5289 10.8453Z" fill="#1D5074"/>
<path fill-rule="evenodd" clip-rule="evenodd" d="M25.0094 10.1092L25.3492 10.4514C25.3719 10.474 25.4078 10.4725 25.4305 10.4506L27.0062 8.87483L27.3023 9.17092L29.775 6.69749C30.282 6.19045 30.9586 5.91077 31.6805 5.91077C32.4016 5.91077 33.0781 6.18967 33.5852 6.69749C34.9789 8.09045 34.3047 9.30686 33.8125 10.1951C33.3617 11.0092 33.1484 11.4615 33.618 12.0475C33.8922 12.3889 34.6773 12.3748 35.7641 12.3553C35.8922 12.353 36.0242 12.3506 36.1609 12.349C36.4211 12.3459 36.632 12.5522 36.6359 12.8115C36.6391 13.0701 36.4328 13.2834 36.1734 13.2865C36.0383 13.2881 35.9078 13.2905 35.7805 13.2928C35.543 13.2967 35.3172 13.3014 35.1031 13.3014C34.0961 13.3014 33.35 13.2123 32.8867 12.6342C32.0016 11.5303 32.5508 10.5381 32.993 9.74045C33.4711 8.87795 33.8164 8.25374 32.9227 7.35998C32.5922 7.0303 32.1516 6.84827 31.6805 6.84827C31.2094 6.84827 30.768 7.0303 30.4383 7.35998L27.9648 9.83342L28.2523 10.1209L26.6766 11.6959C26.6547 11.7178 26.6531 11.7545 26.6758 11.7772L27.018 12.117L23.1094 16.0256C22.5555 16.5795 21.6555 16.5795 21.1016 16.0256C20.8336 15.7576 20.6875 15.3998 20.6875 15.0217C20.6875 14.6436 20.8336 14.2858 21.1016 14.0178L25.0094 10.1092Z" fill="#2A7ABD"/>
</svg>
