<svg width="59" height="56" viewBox="0 0 59 56" fill="none" xmlns="http://www.w3.org/2000/svg">
<g clip-path="url(#clip0_20_60)">
<path d="M0 42.2522C0 39.8574 1.39582 38.79 3.2021 38.79C4.28293 38.79 5.14505 39.2142 5.67874 40.0214C6.21242 39.2142 7.07458 38.79 8.15541 38.79C9.96167 38.79 11.3575 39.8574 11.3575 42.2522V47.9171H9.14076V42.2522C9.14076 41.2121 8.63441 40.8425 7.96403 40.8425C7.30714 40.8425 6.78693 41.2121 6.78693 42.2522V47.9171H4.57018V42.2522C4.57018 41.2121 4.05036 40.8425 3.39345 40.8425C2.72309 40.8425 2.21674 41.2121 2.21674 42.2522V47.9171H0V42.2522Z" fill="#060B56"/>
<path d="M12.768 42.7174C12.768 40.2818 14.15 38.79 16.6951 38.79C19.2538 38.79 20.65 40.2818 20.65 42.7174V47.9171H18.4329V45.3717H14.9301V47.9171H12.768V42.7174ZM18.4329 43.4561V42.7174C18.4329 41.486 17.8992 40.8425 16.6817 40.8425C15.4776 40.8425 14.9301 41.486 14.9301 42.7174V43.4561H18.4329Z" fill="#060B56"/>
<path d="M22.2792 38.9683H25.9053C28.2726 38.9683 29.3261 40.2544 29.3261 42.0333C29.3261 43.2925 28.7928 44.3186 27.643 44.7972L29.6549 47.9172H27.0273L25.4401 45.1123H24.496V47.9172H22.2792V38.9683ZM25.9326 43.0599C26.8221 43.0599 27.082 42.6217 27.082 42.0333C27.082 41.4451 26.8221 41.021 25.9326 41.021H24.496V43.0599H25.9326Z" fill="#060B56"/>
<path d="M30.2985 43.4426C30.2985 40.7608 32.2688 38.79 35.0603 38.79C37.852 38.79 39.8224 40.7608 39.8224 43.4426C39.8224 46.1245 37.852 48.0952 35.0603 48.0952C32.2688 48.0952 30.2985 46.1245 30.2985 43.4426ZM37.5781 43.4426C37.5781 41.9377 36.5793 40.8428 35.0603 40.8428C33.5418 40.8428 32.5424 41.9377 32.5424 43.4426C32.5424 44.9479 33.5418 46.0425 35.0603 46.0425C36.5793 46.0425 37.5781 44.9479 37.5781 43.4426Z" fill="#060B56"/>
<path d="M40.7536 43.4426C40.7536 40.7608 42.7243 38.79 45.5157 38.79C48.3072 38.79 50.2776 40.7608 50.2776 43.4426C50.2776 46.1245 48.3072 48.0952 45.5157 48.0952C42.7243 48.0952 40.7536 46.1245 40.7536 43.4426ZM48.0336 43.4426C48.0336 41.9377 47.0348 40.8428 45.5157 40.8428C43.997 40.8428 42.9979 41.9377 42.9979 43.4426C42.9979 44.9479 43.997 46.0425 45.5157 46.0425C47.0348 46.0425 48.0336 44.9479 48.0336 43.4426Z" fill="#060B56"/>
<path d="M51.6608 38.9683H58.1604V41.021H53.8775V42.4164H57.3669V44.332H53.8775V47.9172H51.6608V38.9683Z" fill="#060B56"/>
<path d="M2.2431 54.7637H2.15986C1.47807 54.7637 0.948468 54.5758 0.569421 54.1988C0.190783 53.8221 0.00146484 53.2973 0.00146484 52.625C0.00146484 51.9545 0.190376 51.4291 0.568197 51.0484C0.94602 50.6681 1.46624 50.478 2.12926 50.478C2.80004 50.478 3.3223 50.6662 3.69646 51.0432C4.07019 51.4196 4.25707 51.9472 4.25707 52.625C4.25707 53.0904 4.15792 53.4913 3.95962 53.8273C3.7609 54.1636 3.4749 54.4167 3.10197 54.5868L3.93594 55.5174H2.91877L2.2431 54.7637ZM2.12926 51.2507C1.80407 51.2507 1.55233 51.3707 1.3728 51.6106C1.19368 51.8511 1.10433 52.1892 1.10433 52.625C1.10433 53.0681 1.19205 53.4081 1.3675 53.6434C1.54294 53.8787 1.79673 53.9962 2.12926 53.9962C2.45649 53.9962 2.70946 53.8763 2.88858 53.6364C3.06769 53.3961 3.15705 53.0592 3.15705 52.625C3.15705 52.1892 3.06769 51.8511 2.88858 51.6106C2.70946 51.3707 2.45649 51.2507 2.12926 51.2507Z" fill="#1781F8"/>
<path d="M4.9856 53.4811V51.5859H5.98319V51.8965C5.98319 52.0645 5.9824 52.276 5.98035 52.5297C5.97872 52.7834 5.9775 52.9532 5.9775 53.038C5.9775 53.2874 5.98402 53.467 5.99708 53.5765C6.00972 53.6867 6.03215 53.7669 6.06358 53.8165C6.10397 53.881 6.15701 53.9312 6.22271 53.9658C6.28841 54.0013 6.36347 54.0184 6.44876 54.0184C6.65562 54.0184 6.81799 53.9395 6.93632 53.7803C7.05466 53.6215 7.11341 53.4009 7.11341 53.1184V51.5859H8.10529V54.6892H7.11341V54.2406C6.96365 54.4217 6.80535 54.5552 6.63848 54.6408C6.47119 54.7265 6.28675 54.7697 6.08561 54.7697C5.72737 54.7697 5.4544 54.6598 5.26673 54.4401C5.07945 54.2201 4.9856 53.9006 4.9856 53.4811Z" fill="#1781F8"/>
<path d="M11.9648 52.9189V54.6892H10.9647V54.2289C10.8317 54.4174 10.682 54.5551 10.5159 54.6408C10.3499 54.7265 10.1475 54.7696 9.90921 54.7696C9.58768 54.7696 9.32696 54.6757 9.12622 54.4881C8.92587 54.3008 8.82593 54.0575 8.82593 53.7583C8.82593 53.3941 8.95078 53.1273 9.20128 52.9577C9.45141 52.7876 9.84433 52.7025 10.38 52.7025H10.9647V52.6251C10.9647 52.4681 10.9027 52.3534 10.7791 52.2802C10.6554 52.2074 10.462 52.1707 10.2001 52.1707C9.98755 52.1707 9.79005 52.1918 9.60727 52.2346C9.42406 52.2772 9.25434 52.3408 9.09724 52.4256V51.6691C9.30943 51.6177 9.52281 51.5782 9.73741 51.5516C9.95162 51.5247 10.1658 51.5112 10.38 51.5112C10.9399 51.5112 11.3438 51.6217 11.5923 51.8426C11.8407 52.0633 11.9648 52.4219 11.9648 52.9189ZM10.4494 53.2931C10.2425 53.2931 10.0871 53.328 9.98265 53.3984C9.87818 53.4682 9.82597 53.5716 9.82597 53.7084C9.82597 53.8342 9.86799 53.9324 9.95205 54.0034C10.0361 54.0744 10.1528 54.1102 10.3025 54.1102C10.489 54.1102 10.6461 54.0429 10.7734 53.9091C10.9011 53.7754 10.9647 53.6077 10.9647 53.4064V53.2931H10.4494Z" fill="#1781F8"/>
<path d="M12.8877 50.3784H13.8796V54.6895H12.8877V50.3784Z" fill="#1781F8"/>
<path d="M14.8323 50.3784H15.8242V51.1872H14.8323V50.3784ZM14.8323 51.5862H15.8242V54.6892H14.8323V51.5862Z" fill="#1781F8"/>
<path d="M17.8608 50.7046V51.5859H18.8829V52.2952H17.8608V53.6114C17.8608 53.7549 17.8894 53.8525 17.9465 53.9036C18.004 53.9541 18.1174 53.9798 18.2871 53.9798H18.7972V54.6889H17.9465C17.5552 54.6889 17.2773 54.6075 17.1141 54.4437C16.9505 54.28 16.8689 54.0028 16.8689 53.6114V52.2952H16.3756V51.5859H16.8689V50.7046H17.8608Z" fill="#1781F8"/>
<path d="M19.0826 51.5859H20.0745L20.9085 53.6919L21.6176 51.5859H22.6095L21.3047 54.9827C21.1737 55.3285 21.0207 55.5699 20.8461 55.7073C20.6715 55.845 20.4413 55.9135 20.1549 55.9135H19.5812V55.2627H19.8917C20.0598 55.2627 20.1822 55.2357 20.2589 55.1822C20.3356 55.1289 20.3948 55.0325 20.4377 54.8942L20.465 54.8082L19.0826 51.5859Z" fill="#1781F8"/>
<path d="M27.7187 53.9352H26.0508L25.7876 54.6889H24.7153L26.2474 50.5522H27.5192L29.0513 54.6889H27.979L27.7187 53.9352ZM26.3168 53.1677H27.4502L26.8847 51.5223L26.3168 53.1677Z" fill="#1781F8"/>
<path d="M29.5221 53.4811V51.5859H30.5197V51.8965C30.5197 52.0645 30.5189 52.276 30.5168 52.5297C30.5152 52.7834 30.514 52.9532 30.514 53.038C30.514 53.2874 30.5205 53.467 30.5336 53.5765C30.5462 53.6867 30.5687 53.7669 30.6001 53.8165C30.6406 53.881 30.6935 53.9312 30.7593 53.9658C30.8248 54.0013 30.9001 54.0184 30.9851 54.0184C31.1917 54.0184 31.3545 53.9395 31.4723 53.7803C31.591 53.6215 31.6504 53.4009 31.6504 53.1184V51.5859H32.6419V54.6892H31.6504V54.2406C31.5001 54.4217 31.3419 54.5552 31.1749 54.6408C31.0078 54.7265 30.8233 54.7697 30.6222 54.7697C30.2639 54.7697 29.9909 54.6598 29.8032 54.4401C29.6159 54.2201 29.5221 53.9006 29.5221 53.4811Z" fill="#1781F8"/>
<path d="M34.6784 50.7046V51.5859H35.7004V52.2952H34.6784V53.6114C34.6784 53.7549 34.7068 53.8525 34.7641 53.9036C34.8216 53.9541 34.9351 53.9798 35.1053 53.9798H35.6148V54.6889H34.7641C34.3727 54.6889 34.0954 54.6075 33.9317 54.4437C33.768 54.28 33.6866 54.0028 33.6866 53.6114V52.2952H33.1933V51.5859H33.6866V50.7046H34.6784Z" fill="#1781F8"/>
<path d="M37.7844 51.5112C38.3181 51.5112 38.7349 51.6554 39.0354 51.9433C39.3356 52.2319 39.4852 52.6306 39.4852 53.1404C39.4852 53.6502 39.3356 54.0493 39.0354 54.3372C38.7349 54.6258 38.3181 54.7693 37.7844 54.7693C37.2486 54.7693 36.8299 54.6258 36.5276 54.3372C36.2256 54.0493 36.0747 53.6502 36.0747 53.1404C36.0747 52.6306 36.2256 52.2319 36.5276 51.9433C36.8299 51.6554 37.2486 51.5112 37.7844 51.5112ZM37.7844 52.2209C37.5644 52.2209 37.3967 52.2995 37.2813 52.4574C37.1662 52.6153 37.1081 52.843 37.1081 53.1404C37.1081 53.4379 37.1662 53.6655 37.2813 53.8234C37.3967 53.9814 37.5644 54.0603 37.7844 54.0603C38.0004 54.0603 38.1657 53.9814 38.2801 53.8234C38.3946 53.6655 38.4518 53.4379 38.4518 53.1404C38.4518 52.843 38.3946 52.6153 38.2801 52.4574C38.1657 52.2995 38.0004 52.2209 37.7844 52.2209Z" fill="#1781F8"/>
<path d="M42.2255 50.5527H43.9958C44.5221 50.5527 44.9261 50.6693 45.2082 50.9031C45.4897 51.1369 45.6305 51.4698 45.6305 51.9019C45.6305 52.3362 45.4897 52.6697 45.2082 52.9035C44.9261 53.137 44.5221 53.2542 43.9958 53.2542H43.292V54.6891H42.2255V50.5527ZM43.292 51.3254V52.4809H43.8826C44.0888 52.4809 44.2489 52.4307 44.3615 52.33C44.4741 52.2297 44.5304 52.0868 44.5304 51.9019C44.5304 51.7171 44.4741 51.5751 44.3615 51.475C44.2489 51.3756 44.0888 51.3254 43.8826 51.3254H43.292Z" fill="#1781F8"/>
<path d="M49.0937 52.9189V54.6892H48.0936V54.2289C47.9605 54.4174 47.8109 54.5551 47.6447 54.6408C47.4788 54.7265 47.2759 54.7696 47.0376 54.7696C46.7166 54.7696 46.4558 54.6757 46.2551 54.4881C46.0547 54.3008 45.9549 54.0575 45.9549 53.7583C45.9549 53.3941 46.0797 53.1273 46.3301 52.9577C46.5804 52.7876 46.9733 52.7025 47.5088 52.7025H48.0936V52.6251C48.0936 52.4681 48.0315 52.3534 47.9079 52.2802C47.7842 52.2074 47.5908 52.1707 47.3286 52.1707C47.1165 52.1707 46.9188 52.1918 46.7361 52.2346C46.5528 52.2772 46.3827 52.3408 46.226 52.4256V51.6691C46.4387 51.6177 46.6517 51.5782 46.8662 51.5516C47.0804 51.5247 47.2946 51.5112 47.5088 51.5112C48.0688 51.5112 48.4728 51.6217 48.7212 51.8426C48.9697 52.0633 49.0937 52.4219 49.0937 52.9189ZM47.5783 53.2931C47.3714 53.2931 47.2157 53.328 47.1116 53.3984C47.0067 53.4682 46.9549 53.5716 46.9549 53.7084C46.9549 53.8342 46.9969 53.9324 47.081 54.0034C47.1649 54.0744 47.2818 54.1102 47.4314 54.1102C47.6178 54.1102 47.775 54.0429 47.9023 53.9091C48.0296 53.7754 48.0936 53.6077 48.0936 53.4064V53.2931H47.5783Z" fill="#1781F8"/>
<path d="M52.3217 52.4311C52.2348 52.3907 52.1482 52.3607 52.0625 52.3411C51.9765 52.3215 51.8902 52.3121 51.8033 52.3121C51.5484 52.3121 51.3523 52.3938 51.2146 52.5572C51.0772 52.7206 51.0083 52.9547 51.0083 53.2595V54.6892H50.0162V51.5862H51.0083V52.0957C51.1356 51.8931 51.2819 51.7444 51.4471 51.6511C51.6124 51.5581 51.8107 51.5112 52.0417 51.5112C52.0751 51.5112 52.1112 51.5128 52.1497 51.5155C52.1886 51.518 52.2449 51.5241 52.3187 51.5336L52.3217 52.4311Z" fill="#1781F8"/>
<path d="M53.898 50.7046V51.5859H54.9201V52.2952H53.898V53.6114C53.898 53.7549 53.9264 53.8525 53.9837 53.9036C54.0412 53.9541 54.1544 53.9798 54.3246 53.9798H54.8344V54.6889H53.9837C53.5923 54.6889 53.3144 54.6075 53.1513 54.4437C52.9876 54.28 52.9059 54.0028 52.9059 53.6114V52.2952H52.4126V51.5859H52.9059V50.7046H53.898Z" fill="#1781F8"/>
<path d="M57.9511 51.6832V52.4366C57.7388 52.3482 57.5337 52.2812 57.3361 52.2371C57.1384 52.193 56.9517 52.1707 56.7764 52.1707C56.5879 52.1707 56.448 52.1942 56.3568 52.2414C56.265 52.2885 56.2194 52.3607 56.2194 52.4586C56.2194 52.5382 56.254 52.5991 56.3235 52.6416C56.3929 52.6845 56.5169 52.7157 56.6959 52.7359L56.8706 52.7607C57.3786 52.8255 57.7204 52.9317 57.8961 53.0792C58.0714 53.227 58.1592 53.4587 58.1592 53.7745C58.1592 54.1056 58.0371 54.3541 57.7932 54.5199C57.5497 54.6861 57.1855 54.7693 56.7017 54.7693C56.497 54.7693 56.2846 54.7534 56.0655 54.7213C55.847 54.6885 55.6221 54.6405 55.3911 54.5756V53.8219C55.5887 53.9183 55.7913 53.9899 55.9994 54.0383C56.2072 54.086 56.418 54.1099 56.6322 54.1099C56.8266 54.1099 56.9722 54.0829 57.0701 54.0297C57.1681 53.9762 57.217 53.8966 57.217 53.7913C57.217 53.7029 57.1831 53.6368 57.1157 53.5933C57.0484 53.5502 56.9138 53.5162 56.7127 53.4923L56.538 53.4703C56.0967 53.4146 55.7873 53.3124 55.6099 53.1625C55.4327 53.0128 55.3442 52.7855 55.3442 52.4813C55.3442 52.1523 55.4569 51.9084 55.6821 51.7496C55.9073 51.5908 56.2528 51.5112 56.7185 51.5112C56.9012 51.5112 57.0934 51.5253 57.2944 51.5528C57.4961 51.5807 57.7149 51.6238 57.9511 51.6832Z" fill="#1781F8"/>
<path d="M45.6195 5.98446C45.5234 5.91304 28.1962 -6.90554 9.35529 5.19697C9.35529 5.19697 29.8295 -3.66388 41.3886 7.10079C40.2429 8.0531 39.5128 9.4889 39.5128 11.0952C39.5128 13.9636 41.8378 16.2881 44.7058 16.2881C47.5737 16.2881 49.8985 13.9636 49.8985 11.0952C49.8985 8.53944 48.0514 6.41655 45.6195 5.98446ZM44.7058 15.0216C42.5407 15.0216 40.7793 13.2606 40.7793 11.0952C40.7793 8.93031 42.5407 7.16934 44.7058 7.16934C46.8705 7.16934 48.6319 8.93031 48.6319 11.0952C48.6319 13.2606 46.8705 15.0216 44.7058 15.0216Z" fill="#060B56"/>
<path d="M43.2311 11.0953C43.2311 11.9929 43.9585 12.7208 44.8566 12.7208C45.7541 12.7208 46.4821 11.9929 46.4821 11.0953C46.4821 10.1976 45.7541 9.46973 44.8566 9.46973C43.9585 9.46973 43.2311 10.1976 43.2311 11.0953Z" fill="#1781F8"/>
<path d="M12.0732 11.0082C12.0732 11.9226 12.8146 12.664 13.7289 12.664C14.6437 12.664 15.385 11.9226 15.385 11.0082C15.385 10.0939 14.6437 9.35254 13.7289 9.35254C12.8146 9.35254 12.0732 10.0939 12.0732 11.0082Z" fill="#1781F8"/>
<path d="M37.8618 11.8475C36.5233 13.2519 34.5358 13.806 32.6679 13.269C31.6461 12.9753 30.7033 12.4665 29.7097 12.0952C28.8611 11.7782 27.9805 11.5452 27.0862 11.4024C23.2729 10.7928 19.1605 11.4326 16.4717 14.2201C15.6997 15.0664 14.7772 15.354 13.6327 15.354C11.3825 15.354 9.55217 13.5236 9.55217 11.2734C9.55217 9.02326 11.3825 7.19288 13.6327 7.19288C14.4814 7.19288 15.295 7.45076 15.9849 7.93833C16.2758 8.14439 16.6785 8.07502 16.8842 7.7841C17.0898 7.4932 17.0209 7.09049 16.73 6.88485C15.8205 6.24223 14.7495 5.90234 13.6327 5.90234C10.6713 5.90234 8.26202 8.31166 8.26202 11.2734C8.26202 14.2348 10.6713 16.6442 13.6327 16.6442C15.1285 16.6442 16.5141 16.1174 17.528 15.0198C20.4967 12.6701 24.4312 11.9626 28.0768 12.9267C30.0068 13.4376 31.7452 14.6412 33.772 14.7611C35.6322 14.8709 37.4934 14.101 38.7731 12.7586C39.345 12.1584 38.4353 11.2457 37.8618 11.8475Z" fill="#060B56"/>
<path d="M11.4143 24.2118C11.0814 24.2118 10.8027 24.0902 10.5636 23.8401C10.3209 23.5863 10.2029 23.3117 10.2029 23.0004C10.2029 22.6572 10.3213 22.3708 10.5653 22.124C10.8084 21.8783 11.0863 21.7588 11.4143 21.7588C11.7575 21.7588 12.0435 21.8775 12.2908 22.1215C12.5364 22.3647 12.6559 22.6523 12.6559 23.0004C12.6559 23.3472 12.5388 23.6291 12.2977 23.8621C12.0545 24.0971 11.7656 24.2118 11.4143 24.2118Z" fill="#060B56"/>
<path d="M3.53857 32.9773L3.368 32.9409L3.13298 32.9005L2.85922 32.8341C2.17253 32.6667 1.59274 32.3316 1.13658 31.838C0.51762 31.1645 0.203857 30.2357 0.203857 29.0786C0.203857 27.9227 0.516803 27.0014 1.13536 26.34C1.53195 25.901 2.1154 25.5652 2.8735 25.3399C3.41289 25.2167 3.67689 25.1902 3.80009 25.1902H8.43964C8.47838 25.1902 8.57835 25.1988 8.8097 25.2571C8.96026 25.2955 9.11816 25.3905 9.27646 25.5382C9.45682 25.73 9.55064 25.9932 9.55064 26.3314C9.55064 26.6778 9.45927 26.9455 9.27156 27.1491C9.16262 27.269 8.98391 27.3727 8.74076 27.4579C8.66037 27.4792 8.56572 27.4922 8.46981 27.4922H4.12201L3.978 27.5037L3.72257 27.5469C3.39536 27.622 3.12974 27.7652 2.91879 27.9769C2.62624 28.2609 2.47609 28.6534 2.47609 29.139C2.47609 29.567 2.63848 29.9334 2.95796 30.2288C3.14605 30.392 3.41372 30.514 3.78295 30.6066L4.22198 30.6442L17.1646 30.6446C18.0969 30.6446 18.7049 30.1786 18.924 29.2969L19.0329 28.8595L17.9692 29.0994L17.3935 29.1439C16.3971 29.1426 15.5477 28.7905 14.8194 28.0663C14.0931 27.3429 13.7393 26.4889 13.7393 25.4558C13.7393 24.4358 14.0947 23.583 14.8259 22.849C15.5566 22.1154 16.4037 21.7588 17.4163 21.7588C18.2597 21.7588 19.0068 22.0154 19.6372 22.5226C20.2737 23.0338 20.7196 23.7058 20.9641 24.519L21.0399 24.854L21.0938 25.7749L21.1232 26.5628L21.144 27.4461L21.0832 29.2401L21.0334 30.048L20.9963 30.2961C20.9938 30.3552 20.993 30.3912 20.9914 30.4144L20.9722 30.4426V30.5278C20.9722 30.5278 20.9718 30.5544 20.9412 30.6149L20.9277 30.6421L20.92 30.6712C20.8902 30.7924 20.8478 30.9154 20.7935 31.0427C20.7372 31.1746 20.6515 31.3389 20.5373 31.5353C20.3508 31.8903 20.1252 32.1676 19.8628 32.3708C19.6519 32.5556 19.4466 32.6887 19.2386 32.7784L18.9452 32.8809L18.5853 32.9179L17.8578 32.9773H3.53857ZM17.356 23.7589C16.9186 23.7589 16.5367 23.9201 16.2225 24.2387C15.9088 24.5566 15.7496 24.9458 15.7496 25.3954C15.7496 25.8271 15.899 26.2115 16.1935 26.5379C16.5509 26.8717 16.9357 27.032 17.356 27.032C17.7926 27.032 18.1769 26.8688 18.4988 26.5481C18.6657 26.3804 18.7893 26.1984 18.8668 26.0079C18.9432 25.8173 18.9823 25.6113 18.9823 25.3954C18.9823 24.9674 18.8228 24.5843 18.5074 24.2567C18.1891 23.9266 17.8019 23.7589 17.356 23.7589Z" fill="#060B56"/>
<path d="M34.0804 37.3144C33.9914 37.3144 33.914 37.3095 33.8469 37.2979C33.7824 37.2869 33.7258 37.274 33.6777 37.2581C33.0528 37.0916 32.7701 36.7385 32.7701 36.1433C32.7701 35.6378 32.9118 35.3033 33.2034 35.1209C33.2481 35.1001 33.3858 35.0469 33.6658 34.9814C33.7285 34.978 33.7836 34.9661 33.8322 34.9441C34.0149 34.8899 34.1554 34.8128 34.2591 34.709C34.3491 34.6191 34.3806 34.5499 34.3806 33.8088L34.3907 31.868L34.3705 27.5473L34.3607 26.3294C34.4048 25.9434 34.474 25.7308 34.5238 25.6268C34.7368 25.1632 35.0817 24.949 35.612 24.949C36.1188 24.949 36.4578 25.1612 36.6806 25.6174C36.7136 25.6986 36.7761 25.9095 36.8468 26.3734L36.8434 30.7554H40.7245L40.3809 29.846C40.2539 29.465 40.1875 29.132 40.1875 28.8672V28.4649L40.227 27.9316C40.2279 27.8206 40.2288 27.7582 40.2315 27.7219C40.2315 27.7219 40.2352 27.6921 40.2637 27.6064L40.4858 26.9202C40.6869 26.4742 41.0113 26.0303 41.4385 25.6284C41.9902 25.1388 42.7323 24.7911 43.6396 24.6006L44.0007 24.5545L44.3618 24.5361C44.9258 24.5365 45.4683 24.6797 45.9598 24.9621C46.3362 25.1637 46.6648 25.4325 46.9418 25.7647L47.3466 26.2979L47.5939 26.6913C47.7303 26.9369 47.8032 27.2502 47.8032 27.6097C47.8032 27.8806 47.7512 28.1218 47.6505 28.3262C47.5574 28.5151 47.4023 28.6595 47.1765 28.7673C47.1336 28.784 47.0859 28.8015 47.0479 28.8133C47.0054 28.8264 46.9237 28.8484 46.8034 28.8803L46.4705 28.9133C46.26 28.9117 46.0889 28.8325 45.9613 28.6624L45.8135 28.2911L45.5904 27.7545C45.4965 27.5277 45.3967 27.3588 45.2853 27.2388C44.9903 26.8957 44.5876 26.7174 44.0959 26.7174C43.37 26.7174 42.8495 26.9732 42.5487 27.4771C42.4642 27.6366 42.4018 27.8052 42.3565 27.9908C42.3112 28.1764 42.2882 28.3833 42.2882 28.6061V28.7668C42.2882 29.2401 42.5095 29.7171 42.9468 30.1843C43.1004 30.3532 43.3115 30.5262 43.5903 30.7098L43.6598 30.7554H48.7815V30.7453H50.3608L50.1833 29.9631L50.1169 29.5013L50.0998 28.9088C50.0998 28.5179 50.1769 28.0699 50.3284 27.5873C50.474 27.1238 50.7764 26.6786 51.2274 26.2641C51.7256 25.7977 52.2504 25.4807 52.789 25.3199C53.3456 25.1539 53.8298 25.0698 54.2294 25.0698L54.7475 25.0996C54.8414 25.1 54.9874 25.1196 55.2405 25.213L55.6383 25.3554L56.4575 25.863C56.9688 26.1996 57.3792 26.77 57.672 27.5558C57.8611 28.0585 57.9569 28.5232 57.9569 28.9378C57.9569 29.1083 57.9376 29.2981 57.9006 29.5025L57.7709 30.1516L57.7133 30.3532L57.2849 31.1624C57.0218 31.6508 56.6059 32.0688 56.0486 32.4026C55.7757 32.5706 55.4681 32.7025 55.1315 32.7959L54.1489 33.0134L53.7539 33.0599L53.1241 33.0982L38.7153 33.0979V33.108H36.8434V35.1974C36.8434 35.2412 36.8376 35.3015 36.8263 35.3792L36.7856 35.6953C36.7048 36.1155 36.5536 36.4588 36.3406 36.6975C36.1289 36.9353 35.8372 37.1094 35.474 37.2144L34.963 37.2979L34.0804 37.3144ZM53.958 27.3212C53.5084 27.3212 53.1158 27.4836 52.7915 27.8035C52.4659 28.1259 52.3015 28.5208 52.3015 28.9778C52.3015 29.4356 52.4668 29.8309 52.7912 30.1516C53.1158 30.4727 53.5084 30.6351 53.958 30.6351C54.3986 30.6351 54.7891 30.4776 55.1193 30.1667C55.4547 29.8513 55.6248 29.4519 55.6248 28.9778C55.6248 28.5294 55.4639 28.1373 55.1474 27.8125C54.8298 27.4869 54.4295 27.3212 53.958 27.3212Z" fill="#060B56"/>
<path d="M30.3679 26.4678C29.9803 26.0802 29.5478 25.7893 29.0827 25.6036C28.6143 25.4159 28.1071 25.3213 27.5763 25.3213C26.6513 25.3213 25.8222 25.6057 25.1115 26.1671C24.3999 26.7289 23.9352 27.4299 23.7271 28.2602C23.7022 28.3471 23.6806 28.4365 23.6618 28.5295C23.6443 28.6189 23.6316 28.6939 23.6267 28.7421L23.5969 29.2599C23.5969 29.6516 23.6586 30.0485 23.781 30.4402C23.9046 30.8365 24.0498 31.175 24.2122 31.4473C24.3709 31.7145 24.5884 31.9767 24.8573 32.227C25.3539 32.6916 26.045 33.0098 26.9647 33.1836L27.3503 33.2583L26.4951 34.7106L26.4902 34.7094C26.3865 34.8128 25.4799 34.8899 25.2967 34.9444C25.2486 34.9664 25.1931 34.9781 25.1303 34.9814C24.8503 35.0472 24.7125 35.1002 24.668 35.121C24.3766 35.3034 24.2347 35.6378 24.2347 36.1434C24.2347 36.7389 24.5178 37.0917 25.1421 37.2579C25.1902 37.2741 25.2469 37.2872 25.3114 37.2983C25.3783 37.3096 25.4558 37.3145 25.5448 37.3145L26.4273 37.2983L26.9386 37.2144C27.3017 37.1097 27.5934 36.9353 27.8052 36.6975C27.917 36.5718 28.0104 36.416 28.0871 36.237L28.3825 35.711L28.8632 34.8909L31.0402 30.9993C31.177 30.7695 31.297 30.4978 31.3974 30.1897C31.4953 29.8906 31.5445 29.5675 31.5445 29.2297C31.5445 28.1435 31.1608 27.241 30.3679 26.4678ZM28.6534 30.4276C28.3258 30.7386 27.9366 30.8959 27.4951 30.8959C27.0238 30.8959 26.6232 30.7313 26.3057 30.4056C25.9891 30.0812 25.8288 29.6923 25.8288 29.2501C25.8288 28.7992 25.9936 28.4079 26.3192 28.0852C26.6432 27.7657 27.0389 27.6029 27.4951 27.6029C27.9611 27.6029 28.3585 27.771 28.6767 28.1011C28.9921 28.4291 29.1525 28.8155 29.1525 29.2501C29.1525 29.7156 28.9844 30.1122 28.6534 30.4276Z" fill="#060B56"/>
</g>
<defs>
<clipPath id="clip0_20_60">
<rect width="58.4481" height="56" fill="white"/>
</clipPath>
</defs>
</svg>
