<svg width="40" height="40" viewBox="0 0 40 40" fill="none" xmlns="http://www.w3.org/2000/svg">
<path d="M19.3334 28.6665V33.9998H3.33335C1.86059 33.9998 0.666687 32.8059 0.666687 31.3332V28.6665H19.3334Z" fill="#CAD9FC"/>
<path d="M17.3334 28.6665H19.3334V33.9998H17.3334V28.6665Z" fill="#1781F8"/>
<path d="M19.3334 17.9996V23.333H13.3334C12.5979 23.3352 12.0022 23.9308 12 24.6663V28.6663H0.666687V20.6663C0.666687 19.1935 1.86059 17.9996 3.33335 17.9996H19.3334Z" fill="#E8EDFC"/>
<path d="M17.3334 17.9996H19.3334V23.333H17.3334V17.9996Z" fill="#CAD9FC"/>
<path d="M12 25.9998H19.3333V28.6664H12V25.9998Z" fill="#1781F8"/>
<path d="M19.3333 23.3331V25.9998H12V24.6665C12.0022 23.931 12.5979 23.3353 13.3333 23.3331H19.3333Z" fill="#1781F8"/>
<path d="M3.33337 34H11.3334V36.6667C11.3334 38.1394 10.1395 39.3333 8.66671 39.3333H6.00004C4.52728 39.3333 3.33337 38.1394 3.33337 36.6667V34Z" fill="#1781F8"/>
<path d="M6 25.3333C7.10457 25.3333 8 24.4378 8 23.3333C8 22.2287 7.10457 21.3333 6 21.3333C4.89543 21.3333 4 22.2287 4 23.3333C4 24.4378 4.89543 25.3333 6 25.3333Z" fill="#CAD9FC"/>
<path d="M19.3334 5.99976V17.9998H3.33337L7.96004 7.58642C8.3891 6.62245 9.3449 6.00092 10.4 5.99976H19.3334Z" fill="#E8EDFC"/>
<path d="M17.3334 5.99976H19.3334V17.9998H17.3334V5.99976Z" fill="#CAD9FC"/>
<path d="M5.69937 12.6666H2.66671C1.93124 12.6688 1.33557 13.2645 1.33337 14C1.33882 14.7341 1.93259 15.3278 2.66671 15.3333H4.52004L5.69937 12.6666Z" fill="#E8EDFC"/>
<path d="M39.3334 5.33313V34.6665C39.3334 35.771 38.4379 36.6665 37.3334 36.6665H21.3334C20.2288 36.6665 19.3334 35.771 19.3334 34.6665V5.33313C19.3334 4.22856 20.2288 3.33313 21.3334 3.33313H25.3334C25.3356 4.0686 25.9312 4.66427 26.6667 4.66646H32C32.7342 4.66102 33.3279 4.06724 33.3334 3.33313H37.3334C38.4379 3.33313 39.3334 4.22856 39.3334 5.33313Z" fill="#E8EDFC"/>
<path d="M37.3334 3.33313H35.3334C36.4379 3.33313 37.3334 4.22856 37.3334 5.33313V34.6665C37.3334 35.771 36.4379 36.6665 35.3334 36.6665H37.3334C38.4379 36.6665 39.3334 35.771 39.3334 34.6665V5.33313C39.3334 4.22856 38.4379 3.33313 37.3334 3.33313Z" fill="#CAD9FC"/>
<path d="M33.3334 3.33318C33.3279 4.0673 32.7342 4.66107 32 4.66652H26.6667C25.9312 4.66432 25.3356 4.06865 25.3334 3.33318C25.3388 2.59907 25.9326 2.0053 26.6667 1.99985H27.4534C27.7332 1.20113 28.4871 0.666382 29.3334 0.666382C30.1797 0.666382 30.9336 1.20113 31.2134 1.99985H32C32.7355 2.00205 33.3312 2.59772 33.3334 3.33318Z" fill="#1781F8"/>
<path d="M3.33337 33.9999V36.6665C3.33337 38.1393 4.52728 39.3332 6.00004 39.3332H8.00004C6.52728 39.3332 5.33337 38.1393 5.33337 36.6665V33.9999H3.33337Z" fill="white"/>
<path d="M3.72602 14.9398C3.47296 14.6927 3.33122 14.3534 3.33335 13.9998C3.33519 13.2641 3.93107 12.6683 4.66669 12.6664H2.66669C1.93107 12.6683 1.33519 13.2641 1.33335 13.9998C1.33808 14.7342 1.93227 15.3284 2.66669 15.3331H4.51802L3.33335 17.9998C1.86059 17.9998 0.666687 19.1937 0.666687 20.6664V31.3331C0.666687 32.8059 1.86059 33.9998 3.33335 33.9998H5.33335C3.86059 33.9998 2.66669 32.8059 2.66669 31.3331V20.6664C2.66669 19.1937 3.86059 17.9998 5.33335 17.9998L6.51802 15.3331L7.70002 12.6664L9.96002 7.58642C10.3891 6.62245 11.3449 6.00092 12.4 5.99976H10.4C9.34488 6.00092 8.38908 6.62245 7.96002 7.58642L4.52802 15.3111" fill="white"/>
<path d="M10.4 5.33325H15.7334V6.66659H10.4V5.33325Z" fill="white"/>
<path d="M36.25 8.14584L33.3833 10.4398L33.1387 10.1952C32.8771 9.94252 32.4613 9.94614 32.2041 10.2033C31.947 10.4604 31.9433 10.8763 32.196 11.1378L32.8627 11.8045C33.1028 12.0448 33.4853 12.0661 33.7507 11.8538L37.084 9.18717C37.27 9.03831 37.3625 8.80152 37.3266 8.56599C37.2907 8.33047 37.1318 8.13199 36.9099 8.04533C36.688 7.95866 36.436 7.99698 36.25 8.14584Z" fill="#060B56"/>
<path d="M5.99998 26.0001C7.47274 26.0001 8.66665 24.8062 8.66665 23.3334C8.66665 21.8607 7.47274 20.6667 5.99998 20.6667C4.52722 20.6667 3.33331 21.8607 3.33331 23.3334C3.33331 24.8062 4.52722 26.0001 5.99998 26.0001ZM5.99998 22.0001C6.73636 22.0001 7.33331 22.597 7.33331 23.3334C7.33331 24.0698 6.73636 24.6667 5.99998 24.6667C5.2636 24.6667 4.66665 24.0698 4.66665 23.3334C4.66665 22.597 5.2636 22.0001 5.99998 22.0001Z" fill="#060B56"/>
<path d="M13.0667 6.66659C13.4349 6.66659 13.7334 6.36811 13.7334 5.99992C13.7334 5.63173 13.4349 5.33325 13.0667 5.33325C12.6985 5.33325 12.4 5.63173 12.4 5.99992C12.4 6.36811 12.6985 6.66659 13.0667 6.66659Z" fill="#060B56"/>
<path d="M8.81732 15.0886C9.05041 15.3735 9.47033 15.4156 9.75533 15.1826L17.0887 9.18255C17.2772 9.0331 17.3706 8.79363 17.3331 8.55597C17.2955 8.31831 17.1328 8.11934 16.9073 8.03535C16.6818 7.95136 16.4286 7.99539 16.2447 8.15055L8.91132 14.1506C8.62639 14.3836 8.58431 14.8036 8.81732 15.0886Z" fill="#060B56"/>
<path d="M37.3333 2.66679H33.8773C33.5958 1.87055 32.8445 1.33695 32 1.33345H31.6407C31.1651 0.508614 30.2854 0.000366211 29.3333 0.000366211C28.3812 0.000366211 27.5015 0.508614 27.026 1.33345H26.6667C25.8213 1.3352 25.0687 1.86934 24.788 2.66679H21.3333C19.8606 2.66679 18.6667 3.86069 18.6667 5.33345H15.7333C15.3651 5.33345 15.0667 5.63193 15.0667 6.00012C15.0667 6.36831 15.3651 6.66679 15.7333 6.66679H18.6667V17.3335H4.35933C5.09267 15.6868 7.20867 10.9101 8.56933 7.85945C8.8912 7.13587 9.60807 6.66884 10.4 6.66679C10.7682 6.66679 11.0667 6.36831 11.0667 6.00012C11.0667 5.63193 10.7682 5.33345 10.4 5.33345C9.08194 5.33662 7.88833 6.1127 7.35067 7.31612L5.26667 12.0001H2.66667C1.5621 12.0001 0.666667 12.8956 0.666667 14.0001C0.662641 14.5276 0.872634 15.0342 1.24867 15.4041C1.62024 15.7879 2.13249 16.0032 2.66667 16.0001H3.492L2.87933 17.3795C1.23364 17.6031 0.00484374 19.006 0 20.6668V31.3335C0.00199886 32.9169 1.11572 34.2812 2.66667 34.6001V36.6668C2.66887 38.5068 4.15996 39.9979 6 40.0001H8.66667C10.5067 39.9979 11.9978 38.5068 12 36.6668V34.6668H18.6667C18.6667 36.1395 19.8606 37.3335 21.3333 37.3335H37.3333C38.8061 37.3335 40 36.1395 40 34.6668V5.33345C40 3.86069 38.8061 2.66679 37.3333 2.66679ZM26.2047 2.85812C26.3263 2.73426 26.4931 2.6652 26.6667 2.66679H27.4533C27.7383 2.66677 27.9917 2.48568 28.084 2.21612C28.2714 1.68688 28.7719 1.33314 29.3333 1.33314C29.8948 1.33314 30.3953 1.68688 30.5827 2.21612C30.675 2.48568 30.9284 2.66677 31.2133 2.66679H32C32.3682 2.66679 32.6667 2.96526 32.6667 3.33345C32.667 3.51336 32.5929 3.68541 32.462 3.80879C32.3404 3.93264 32.1736 4.00171 32 4.00012H26.6667C26.2985 4.00012 26 3.70164 26 3.33345C25.9996 3.15354 26.0737 2.9815 26.2047 2.85812ZM18.6667 25.3335H12.6667V24.6668C12.6667 24.2986 12.9651 24.0001 13.3333 24.0001H18.6667V25.3335ZM12.6667 26.6668H18.6667V28.0001H12.6667V26.6668ZM2.66667 14.6668C2.48689 14.6674 2.31494 14.5933 2.192 14.4621C2.06777 14.3407 1.99843 14.1738 2 14.0001C2 13.6319 2.29848 13.3335 2.66667 13.3335H4.67733L4.08467 14.6668H2.66667ZM3.33333 18.6668H18.6667V22.6668H13.3333C12.2288 22.6668 11.3333 23.5622 11.3333 24.6668V28.0001H1.33333V20.6668C1.33333 19.5622 2.22876 18.6668 3.33333 18.6668ZM10.6667 36.6668C10.6667 37.7714 9.77124 38.6668 8.66667 38.6668H6C4.89543 38.6668 4 37.7714 4 36.6668V34.6668H10.6667V36.6668ZM3.33333 33.3335C2.22876 33.3335 1.33333 32.438 1.33333 31.3335V29.3335H18.6667V30.6668H16.6667C16.2985 30.6668 16 30.9653 16 31.3335C16 31.7016 16.2985 32.0001 16.6667 32.0001H18.6667V33.3335H3.33333ZM38.6667 34.6668C38.6667 35.4032 38.0697 36.0001 37.3333 36.0001H21.3333C20.597 36.0001 20 35.4032 20 34.6668V5.33345C20 4.59707 20.597 4.00012 21.3333 4.00012H24.7893C25.0708 4.79635 25.8221 5.32995 26.6667 5.33345H32C32.8454 5.33171 33.598 4.79757 33.8787 4.00012H37.3333C38.0697 4.00012 38.6667 4.59707 38.6667 5.33345V34.6668Z" fill="#060B56"/>
<path d="M30 8H22C21.6318 8 21.3333 8.29848 21.3333 8.66667C21.3333 9.03486 21.6318 9.33333 22 9.33333H30C30.3682 9.33333 30.6666 9.03486 30.6666 8.66667C30.6666 8.29848 30.3682 8 30 8Z" fill="#060B56"/>
<path d="M22 12.0001H26C26.3682 12.0001 26.6666 11.7016 26.6666 11.3334C26.6666 10.9652 26.3682 10.6667 26 10.6667H22C21.6318 10.6667 21.3333 10.9652 21.3333 11.3334C21.3333 11.7016 21.6318 12.0001 22 12.0001Z" fill="#060B56"/>
<path d="M36.25 14.8127L33.3833 17.1067L33.1387 16.862C32.8771 16.6094 32.4613 16.613 32.2041 16.8702C31.947 17.1273 31.9433 17.5431 32.196 17.8047L32.8627 18.4714C33.1028 18.7117 33.4853 18.733 33.7507 18.5207L37.084 15.854C37.27 15.7052 37.3625 15.4684 37.3266 15.2329C37.2907 14.9973 37.1318 14.7989 36.9099 14.7122C36.688 14.6255 36.436 14.6638 36.25 14.8127Z" fill="#060B56"/>
<path d="M30 14.6665H22C21.6318 14.6665 21.3333 14.965 21.3333 15.3332C21.3333 15.7014 21.6318 15.9998 22 15.9998H30C30.3682 15.9998 30.6666 15.7014 30.6666 15.3332C30.6666 14.965 30.3682 14.6665 30 14.6665Z" fill="#060B56"/>
<path d="M22 18.6665H26C26.3682 18.6665 26.6666 18.368 26.6666 17.9998C26.6666 17.6316 26.3682 17.3331 26 17.3331H22C21.6318 17.3331 21.3333 17.6316 21.3333 17.9998C21.3333 18.368 21.6318 18.6665 22 18.6665Z" fill="#060B56"/>
<path d="M36.25 21.4795L33.3833 23.7735L33.1387 23.5288C32.8771 23.2762 32.4613 23.2798 32.2041 23.5369C31.947 23.7941 31.9433 24.2099 32.196 24.4715L32.8627 25.1381C33.1028 25.3785 33.4853 25.3997 33.7507 25.1875L37.084 22.5208C37.3715 22.2907 37.4181 21.871 37.188 21.5835C36.9579 21.2959 36.5375 21.2494 36.25 21.4795Z" fill="#060B56"/>
<path d="M30 21.3333H22C21.6318 21.3333 21.3333 21.6317 21.3333 21.9999C21.3333 22.3681 21.6318 22.6666 22 22.6666H30C30.3682 22.6666 30.6666 22.3681 30.6666 21.9999C30.6666 21.6317 30.3682 21.3333 30 21.3333Z" fill="#060B56"/>
<path d="M22 25.3333H26C26.3682 25.3333 26.6666 25.0349 26.6666 24.6667C26.6666 24.2985 26.3682 24 26 24H22C21.6318 24 21.3333 24.2985 21.3333 24.6667C21.3333 25.0349 21.6318 25.3333 22 25.3333Z" fill="#060B56"/>
<path d="M36.25 28.1459L33.3833 30.4399L33.1387 30.1952C32.8771 29.9425 32.4613 29.9462 32.2041 30.2033C31.947 30.4605 31.9433 30.8763 32.196 31.1379L32.8627 31.8045C33.1028 32.0449 33.4853 32.0661 33.7507 31.8539L37.084 29.1872C37.3715 28.9571 37.4181 28.5374 37.188 28.2499C36.9579 27.9623 36.5375 27.9157 36.25 28.1459Z" fill="#060B56"/>
<path d="M30 28H22C21.6318 28 21.3333 28.2985 21.3333 28.6667C21.3333 29.0349 21.6318 29.3333 22 29.3333H30C30.3682 29.3333 30.6666 29.0349 30.6666 28.6667C30.6666 28.2985 30.3682 28 30 28Z" fill="#060B56"/>
<path d="M26 30.6667H22C21.6318 30.6667 21.3333 30.9652 21.3333 31.3334C21.3333 31.7016 21.6318 32.0001 22 32.0001H26C26.3682 32.0001 26.6666 31.7016 26.6666 31.3334C26.6666 30.9652 26.3682 30.6667 26 30.6667Z" fill="#060B56"/>
</svg>
