<svg width="40" height="40" viewBox="0 0 40 40" fill="none" xmlns="http://www.w3.org/2000/svg">
<g clip-path="url(#clip0_1_1324)">
<path d="M10 13.333H14V26.6663H10V13.333Z" fill="#A4C2F7"/>
<path d="M12 13.333H14V26.6663H12V13.333Z" fill="#1781F8"/>
<path d="M16 27.3732V35.3332H13.3333C13.3333 34.5968 12.7364 33.9998 12 33.9998C11.2636 33.9998 10.6667 34.5968 10.6667 35.3332H8V29.3332L14 27.8665V27.8598L16 27.3732Z" fill="#A4C2F7"/>
<path d="M14 27.8632V35.3332H16V27.3732L14 27.8632Z" fill="#1781F8"/>
<path d="M14 31.8732C13.3938 31.5172 12.703 31.3307 12 31.3332C9.98726 31.3282 8.28272 32.8161 8.01566 34.8111C7.7486 36.806 9.00177 38.6899 10.9449 39.2145C12.8881 39.7392 14.9191 38.7421 15.6924 36.8838C16.4657 35.0255 15.7417 32.8819 14 31.8732ZM12 36.6665C11.2636 36.6665 10.6667 36.0695 10.6667 35.3332C10.6667 34.5968 11.2636 33.9998 12 33.9998C12.7364 33.9998 13.3333 34.5968 13.3333 35.3332C13.3311 36.0686 12.7355 36.6643 12 36.6665Z" fill="#C6D8FB"/>
<path d="M14 8.12646L15.3334 11.3331H12H8.66669L10 8.12646" fill="#C6D8FB"/>
<path d="M14 8.12646H12L13.3333 11.3331H15.3333L14 8.12646Z" fill="#1781F8"/>
<path d="M16 11.3331H8.00002C7.26364 11.3331 6.66669 11.9301 6.66669 12.6665C6.66669 13.4028 7.26364 13.9998 8.00002 13.9998H16C16.7364 13.9998 17.3334 13.4028 17.3334 12.6665C17.3334 11.9301 16.7364 11.3331 16 11.3331Z" fill="#E8EDFC"/>
<path d="M16 11.3331H14C14.7364 11.3331 15.3333 11.9301 15.3333 12.6665C15.3333 13.4028 14.7364 13.9998 14 13.9998H16C16.7364 13.9998 17.3333 13.4028 17.3333 12.6665C17.3333 11.9301 16.7364 11.3331 16 11.3331Z" fill="#1781F8"/>
<path d="M8 18.6666C7.32717 18.6655 6.76057 18.1633 6.6787 17.4955C6.59684 16.8276 7.02536 16.2035 7.678 16.0399L15.678 14.0399C16.1426 13.9171 16.6373 14.0538 16.9729 14.3977C17.3085 14.7416 17.4331 15.2395 17.299 15.701C17.165 16.1624 16.793 16.516 16.3253 16.6266L8.32533 18.6266C8.21894 18.6532 8.10967 18.6667 8 18.6666Z" fill="#E8EDFC"/>
<path d="M8.00001 23.9997C7.32615 23.9999 6.75802 23.4974 6.67604 22.8285C6.59407 22.1597 7.02403 21.5348 7.67801 21.3723L15.678 19.3723C16.3925 19.1936 17.1166 19.6279 17.2953 20.3423C17.4741 21.0568 17.0398 21.7809 16.3253 21.9597L8.32534 23.9597C8.21889 23.986 8.10966 23.9995 8.00001 23.9997Z" fill="#E8EDFC"/>
<path d="M8.00001 29.333C7.32615 29.3333 6.75802 28.8307 6.67604 28.1619C6.59407 27.493 7.02403 26.8681 7.67801 26.7057L15.678 24.7057C16.1426 24.5829 16.6373 24.7196 16.9729 25.0635C17.3085 25.4074 17.4331 25.9053 17.299 26.3667C17.165 26.8282 16.793 27.1818 16.3253 27.2923L8.32534 29.2923C8.21898 29.3192 8.10971 29.3329 8.00001 29.333Z" fill="#E8EDFC"/>
<path d="M12 0.66626C9.79086 0.66626 8 2.45712 8 4.66626C8 6.8754 9.79086 8.66626 12 8.66626C14.2091 8.66626 16 6.8754 16 4.66626C16 3.60539 15.5786 2.58798 14.8284 1.83783C14.0783 1.08769 13.0609 0.66626 12 0.66626ZM12 5.99959C11.2636 5.99959 10.6667 5.40264 10.6667 4.66626C10.6667 3.92988 11.2636 3.33293 12 3.33293C12.7364 3.33293 13.3333 3.92988 13.3333 4.66626C13.3333 5.01988 13.1929 5.35902 12.9428 5.60907C12.6928 5.85912 12.3536 5.99959 12 5.99959Z" fill="#E8EDFC"/>
<path d="M12 0.66627C11.6624 0.668253 11.3264 0.713055 11 0.799603C12.7653 1.25381 13.9993 2.84544 13.9993 4.66827C13.9993 6.4911 12.7653 8.08273 11 8.53694C12.5021 8.92846 14.0951 8.41557 15.0866 7.22117C16.0781 6.02677 16.2891 4.36658 15.6277 2.96218C14.9664 1.55779 13.5523 0.662819 12 0.66627Z" fill="#1781F8"/>
<path d="M26 13.333H30V26.6663H26V13.333Z" fill="#A4C2F7"/>
<path d="M28 13.333H30V26.6663H28V13.333Z" fill="#1781F8"/>
<path d="M32 27.3732V35.3332H29.3333C29.3333 34.5968 28.7364 33.9998 28 33.9998C27.2636 33.9998 26.6667 34.5968 26.6667 35.3332H24V29.3332L30 27.8665V27.8598L32 27.3732Z" fill="#A4C2F7"/>
<path d="M30 27.8632V35.3332H32V27.3732L30 27.8632Z" fill="#1781F8"/>
<path d="M30 31.8732C29.3938 31.5172 28.703 31.3307 28 31.3332C25.9873 31.3282 24.2827 32.8161 24.0157 34.8111C23.7486 36.806 25.0018 38.6899 26.9449 39.2145C28.8881 39.7392 30.9191 38.7421 31.6924 36.8838C32.4657 35.0255 31.7417 32.8819 30 31.8732ZM28 36.6665C27.2636 36.6665 26.6667 36.0695 26.6667 35.3332C26.6667 34.5968 27.2636 33.9998 28 33.9998C28.7364 33.9998 29.3333 34.5968 29.3333 35.3332C29.3311 36.0686 28.7355 36.6643 28 36.6665Z" fill="#C6D8FB"/>
<path d="M30.0007 8.12646L31.334 11.3331H28.0007H24.6674L26.0007 8.12646" fill="#C6D8FB"/>
<path d="M30 8.12646H28L29.3334 11.3331H31.3334L30 8.12646Z" fill="#1781F8"/>
<path d="M32.0007 11.3331H24.0007C23.2643 11.3331 22.6673 11.9301 22.6673 12.6665C22.6673 13.4028 23.2643 13.9998 24.0007 13.9998H32.0007C32.737 13.9998 33.334 13.4028 33.334 12.6665C33.334 11.9301 32.737 11.3331 32.0007 11.3331Z" fill="#E8EDFC"/>
<path d="M32 11.3331H30C30.7364 11.3331 31.3333 11.9301 31.3333 12.6665C31.3333 13.4028 30.7364 13.9998 30 13.9998H32C32.7364 13.9998 33.3333 13.4028 33.3333 12.6665C33.3333 11.9301 32.7364 11.3331 32 11.3331Z" fill="#CAD9FC"/>
<path d="M24 18.6666C23.3271 18.6658 22.7602 18.1637 22.6781 17.4958C22.5961 16.8279 23.0246 16.2035 23.6774 16.0399L31.6774 14.0399C32.1419 13.9171 32.6366 14.0538 32.9722 14.3977C33.3079 14.7416 33.4325 15.2395 33.2984 15.701C33.1643 16.1624 32.7923 16.516 32.3247 16.6266L24.3247 18.6266C24.2185 18.6532 24.1095 18.6667 24 18.6666Z" fill="#E8EDFC"/>
<path d="M24 23.9997C23.326 24.0003 22.7576 23.4978 22.6754 22.8289C22.5933 22.1599 23.0232 21.5348 23.6773 21.3723L31.6773 19.3723C32.3918 19.1936 33.1159 19.6279 33.2947 20.3423C33.4734 21.0568 33.0391 21.7809 32.3247 21.9597L24.3247 23.9597C24.2185 23.986 24.1094 23.9994 24 23.9997Z" fill="#E8EDFC"/>
<path d="M24 29.333C23.326 29.3336 22.7576 28.8311 22.6754 28.1622C22.5933 27.4932 23.0232 26.8682 23.6773 26.7057L31.6773 24.7057C32.1419 24.5829 32.6366 24.7196 32.9722 25.0635C33.3078 25.4074 33.4324 25.9053 33.2984 26.3667C33.1643 26.8282 32.7923 27.1818 32.3247 27.2923L24.3247 29.2923C24.2185 29.3192 24.1095 29.3329 24 29.333Z" fill="#E8EDFC"/>
<path d="M28 0.66626C25.7909 0.66626 24 2.45712 24 4.66626C24 6.8754 25.7909 8.66626 28 8.66626C30.2091 8.66626 32 6.8754 32 4.66626C32 3.60539 31.5786 2.58798 30.8284 1.83783C30.0783 1.08769 29.0609 0.66626 28 0.66626ZM28 5.99959C27.2636 5.99959 26.6667 5.40264 26.6667 4.66626C26.6667 3.92988 27.2636 3.33293 28 3.33293C28.7364 3.33293 29.3333 3.92988 29.3333 4.66626C29.3333 5.01988 29.1929 5.35902 28.9428 5.60907C28.6928 5.85912 28.3536 5.99959 28 5.99959Z" fill="#E8EDFC"/>
<path d="M28 0.66627C27.6624 0.668332 27.3264 0.713133 27 0.799603C28.7653 1.25381 29.9993 2.84544 29.9993 4.66827C29.9993 6.4911 28.7653 8.08273 27 8.53694C28.5021 8.92846 30.0951 8.41557 31.0866 7.22117C32.0781 6.02677 32.2891 4.36658 31.6277 2.96218C30.9664 1.55779 29.5523 0.662819 28 0.66627Z" fill="#1781F8"/>
<path d="M13 39.1996C12.674 39.2881 12.3378 39.333 12 39.3329C9.79086 39.3329 8 37.542 8 35.3329V29.3329C7.32629 29.3342 6.75747 28.8327 6.67432 28.1641C6.59118 27.4955 7.01983 26.87 7.67333 26.7062L10 26.1262V26.6262L9.67333 26.7062C9.01983 26.87 8.59118 27.4955 8.67432 28.1641C8.75747 28.8327 9.32628 29.3342 10 29.3329V35.3329C10.0045 37.154 11.2372 38.7427 13 39.1996Z" fill="white"/>
<path d="M10 20.7932V21.2932L9.67333 21.3732C9.17362 21.5006 8.79215 21.9046 8.69376 22.4109C8.59537 22.9171 8.79771 23.4346 9.21333 23.7399L8.32667 23.9599C8.21971 23.9859 8.11008 23.9993 8 23.9999C7.32629 24.0012 6.75747 23.4997 6.67432 22.8311C6.59118 22.1625 7.01983 21.537 7.67333 21.3732L10 20.7932Z" fill="white"/>
<path d="M7.67333 16.0397L10 15.4597V15.9597L9.67333 16.0397C9.33103 16.1252 9.03676 16.3433 8.85543 16.6459C8.67409 16.9486 8.62057 17.3109 8.70667 17.653C8.78031 17.9566 8.96 18.2237 9.21333 18.4064L8.32667 18.6264C8.21971 18.6524 8.11008 18.6658 8 18.6664C7.32629 18.6677 6.75747 18.1662 6.67432 17.4976C6.59118 16.829 7.01983 16.2035 7.67333 16.0397Z" fill="white"/>
<path d="M12 8.12626L10.6667 11.3329H10C9.26364 11.3329 8.66669 11.9299 8.66669 12.6663C8.66669 13.4026 9.26364 13.9996 10 13.9996H8.00002C7.26364 13.9996 6.66669 13.4026 6.66669 12.6663C6.66669 11.9299 7.26364 11.3329 8.00002 11.3329H8.66669L10 8.12626C8.59306 7.31638 7.81667 5.73514 8.03621 4.12665C8.25574 2.51815 9.42749 1.20281 11 0.799593C11.1509 0.757616 11.3047 0.726426 11.46 0.70626C11.4734 0.70626 11.4934 0.699593 11.5067 0.699593C11.6703 0.678319 11.835 0.667187 12 0.66626C12.3378 0.666181 12.6741 0.711019 13 0.799593C11.4275 1.20281 10.2557 2.51815 10.0362 4.12665C9.81667 5.73514 10.5931 7.31638 12 8.12626Z" fill="white"/>
<path d="M10.9053 0.132935L11.2173 1.42893C10.4908 1.60339 9.84446 2.01828 9.38334 2.60627C8.9213 3.19374 8.66903 3.91887 8.66668 4.66627H7.33334C7.33624 2.51228 8.81179 0.639609 10.9053 0.132935Z" fill="white"/>
<path d="M8.85601 2.84041C9.2242 2.84041 9.52268 2.54194 9.52268 2.17375C9.52268 1.80556 9.2242 1.50708 8.85601 1.50708H8.84935C8.48116 1.50892 8.18417 1.80889 8.18601 2.17708C8.18785 2.54527 8.48782 2.84225 8.85601 2.84041Z" fill="#060B56"/>
<path d="M14 4.6665C14 3.56193 13.1046 2.6665 12 2.6665C10.8954 2.6665 10 3.56193 10 4.6665C10 5.77107 10.8954 6.6665 12 6.6665C13.1046 6.6665 14 5.77107 14 4.6665ZM11.3333 4.6665C11.3333 4.29831 11.6318 3.99984 12 3.99984C12.3682 3.99984 12.6667 4.29831 12.6667 4.6665C12.6667 5.03469 12.3682 5.33317 12 5.33317C11.6318 5.33317 11.3333 5.03469 11.3333 4.6665Z" fill="#060B56"/>
<path d="M12 33.333C10.8954 33.333 10 34.2284 10 35.333C10 36.4376 10.8954 37.333 12 37.333C13.1046 37.333 14 36.4376 14 35.333C14 34.2284 13.1046 33.333 12 33.333ZM12 35.9997C11.6318 35.9997 11.3333 35.7012 11.3333 35.333C11.3333 34.9648 11.6318 34.6663 12 34.6663C12.3682 34.6663 12.6667 34.9648 12.6667 35.333C12.6667 35.7012 12.3682 35.9997 12 35.9997Z" fill="#060B56"/>
<path d="M8.00001 14.6664H9.33335V14.9378L7.51401 15.3924C6.53316 15.6368 5.88886 16.5747 6.01259 17.5779C6.13632 18.5811 6.98918 19.3343 8.00001 19.3331C8.16403 19.3329 8.32742 19.313 8.48668 19.2738L9.33335 19.0618V20.2711L7.51401 20.7258C6.8208 20.8993 6.27281 21.4294 6.07647 22.1165C5.88013 22.8036 6.06526 23.5433 6.56214 24.0569C7.05901 24.5704 7.79213 24.7799 8.48535 24.6064L9.33335 24.3944V25.6038L7.51401 26.0584C6.65732 26.2723 6.04223 27.0226 6.00059 27.9046C5.95895 28.7866 6.50061 29.5915 7.33335 29.8851V35.3331C7.33335 37.9104 9.42269 39.9998 12 39.9998C14.5773 39.9998 16.6667 37.9104 16.6667 35.3331V27.8744C17.6702 27.5183 18.2172 26.4368 17.9095 25.4174C17.6017 24.3979 16.5477 23.7998 15.5147 24.0584L14.6667 24.2704V23.0611L16.486 22.6064C17.5576 22.3382 18.2089 21.252 17.9407 20.1804C17.6725 19.1088 16.5863 18.4575 15.5147 18.7258L14.6667 18.9378V17.7284L16.486 17.2738C17.5574 17.0053 18.2084 15.9192 17.94 14.8478C17.8588 14.5311 17.7 14.2397 17.478 13.9998C18.0105 13.4161 18.1475 12.5728 17.8272 11.8506C17.507 11.1283 16.7901 10.6637 16 10.6664H15.7787L14.8247 8.37243C16.4194 7.16169 17.0625 5.06773 16.4225 3.17057C15.7825 1.27341 14.0022 -0.00297314 12 -0.000239759C11.6313 0.00310986 11.2641 0.0478343 10.9053 0.133094C10.7179 0.164848 10.555 0.279875 10.4624 0.445864C10.3697 0.611853 10.3573 0.810899 10.4287 0.987094C10.5587 1.29823 10.8841 1.48061 11.2173 1.42909C11.474 1.36872 11.7364 1.33653 12 1.33309C13.841 1.33309 15.3333 2.82548 15.3333 4.66643C15.3333 6.50738 13.841 7.99976 12 7.99976C10.1591 7.99976 8.66668 6.50738 8.66668 4.66643C8.66668 4.29824 8.3682 3.99976 8.00001 3.99976C7.63182 3.99976 7.33335 4.29824 7.33335 4.66643C7.33462 6.1217 8.01606 7.49272 9.17535 8.37243L8.22135 10.6664H8.00001C6.89544 10.6664 6.00001 11.5619 6.00001 12.6664C6.00001 13.771 6.89544 14.6664 8.00001 14.6664ZM12 38.6664C10.1591 38.6664 8.66668 37.174 8.66668 35.3331C8.66668 33.4921 10.1591 31.9998 12 31.9998C13.841 31.9998 15.3333 33.4921 15.3333 35.3331C15.3311 37.1731 13.84 38.6642 12 38.6664ZM15.3333 32.0738C14.4577 31.174 13.2555 30.6665 12 30.6665C10.7445 30.6665 9.54232 31.174 8.66668 32.0738V29.8944L15.3333 28.2278V32.0738ZM15.836 25.3524C15.8897 25.3396 15.9448 25.3331 16 25.3331C16.3361 25.3331 16.6196 25.5833 16.6615 25.9168C16.7033 26.2503 16.4904 26.5627 16.1647 26.6458L8.16468 28.6458C7.93365 28.7038 7.68923 28.6341 7.52348 28.463C7.35774 28.2919 7.29586 28.0454 7.36115 27.8163C7.42644 27.5873 7.60898 27.4104 7.84001 27.3524L15.836 25.3524ZM10.6667 25.2704V24.0611L13.3333 23.3944V24.6038L10.6667 25.2704ZM15.836 20.0198C16.067 19.9615 16.3116 20.031 16.4775 20.2019C16.6435 20.3729 16.7056 20.6194 16.6405 20.8486C16.5755 21.0778 16.393 21.2549 16.162 21.3131L8.16201 23.3131C7.93098 23.3711 7.68656 23.3014 7.52082 23.1303C7.35508 22.9593 7.29319 22.7128 7.35848 22.4837C7.42377 22.2546 7.60632 22.0778 7.83735 22.0198L15.836 20.0198ZM10.6667 19.9378V18.7284L13.3333 18.0618V19.2711L10.6667 19.9378ZM16.162 15.9798L8.16201 17.9798C7.93098 18.0378 7.68656 17.9681 7.52082 17.797C7.35508 17.6259 7.29319 17.3794 7.35848 17.1503C7.42377 16.9213 7.60632 16.7444 7.83735 16.6864L15.8373 14.6864C15.8906 14.6735 15.9452 14.6668 16 14.6664C16.3361 14.6664 16.6196 14.9166 16.6615 15.2501C16.7033 15.5836 16.4904 15.8961 16.1647 15.9791L16.162 15.9798ZM10.3487 9.02576C11.4114 9.43554 12.5886 9.43554 13.6513 9.02576L14.3333 10.6664H9.66668L10.3487 9.02576ZM8.00001 11.9998H16C16.3682 11.9998 16.6667 12.2982 16.6667 12.6664C16.6667 13.0346 16.3682 13.3331 16 13.3331H8.00001C7.63182 13.3331 7.33335 13.0346 7.33335 12.6664C7.33335 12.2982 7.63182 11.9998 8.00001 11.9998Z" fill="#060B56"/>
<path d="M28 6.6665C29.1046 6.6665 30 5.77107 30 4.6665C30 3.56193 29.1046 2.6665 28 2.6665C26.8954 2.6665 26 3.56193 26 4.6665C26 5.77107 26.8954 6.6665 28 6.6665ZM28 3.99984C28.3682 3.99984 28.6667 4.29831 28.6667 4.6665C28.6667 5.03469 28.3682 5.33317 28 5.33317C27.6318 5.33317 27.3333 5.03469 27.3333 4.6665C27.3333 4.29831 27.6318 3.99984 28 3.99984Z" fill="#060B56"/>
<path d="M28 33.333C26.8954 33.333 26 34.2284 26 35.333C26 36.4376 26.8954 37.333 28 37.333C29.1046 37.333 30 36.4376 30 35.333C30 34.2284 29.1046 33.333 28 33.333ZM28 35.9997C27.6318 35.9997 27.3333 35.7012 27.3333 35.333C27.3333 34.9648 27.6318 34.6663 28 34.6663C28.3682 34.6663 28.6667 34.9648 28.6667 35.333C28.6667 35.7012 28.3682 35.9997 28 35.9997Z" fill="#060B56"/>
<path d="M24 14.6663H25.3333V14.9377L23.514 15.3923C22.5332 15.6367 21.8889 16.5746 22.0126 17.5778C22.1363 18.5811 22.9892 19.3343 24 19.333C24.164 19.3328 24.3274 19.3129 24.4867 19.2737L25.3333 19.0617V20.271L23.514 20.7257C22.8208 20.8992 22.2728 21.4293 22.0765 22.1164C21.8801 22.8035 22.0653 23.5432 22.5621 24.0568C23.059 24.5704 23.7921 24.7799 24.4853 24.6063L25.3333 24.3943V25.6037L23.514 26.0583C22.6573 26.2722 22.0422 27.0225 22.0006 27.9045C21.9589 28.7865 22.5006 29.5914 23.3333 29.885V35.333C23.3333 37.9103 25.4227 39.9997 28 39.9997C30.5773 39.9997 32.6667 37.9103 32.6667 35.333V27.8743C33.6702 27.5182 34.2172 26.4367 33.9095 25.4173C33.6017 24.3978 32.5477 23.7997 31.5147 24.0583L30.6667 24.2703V23.061L32.486 22.6063C33.5576 22.3381 34.2089 21.252 33.9407 20.1803C33.6725 19.1087 32.5863 18.4574 31.5147 18.7257L30.6667 18.9377V17.7283L32.486 17.2737C33.5574 17.0052 34.2084 15.9191 33.94 14.8477C33.859 14.5309 33.7002 14.2395 33.478 13.9997C34.0098 13.4158 34.1464 12.5729 33.8263 11.8509C33.5062 11.1289 32.7898 10.6642 32 10.6663H31.7787L30.8247 8.37234C32.4191 7.15996 33.062 5.06534 32.4223 3.16725C31.7826 1.26916 30.003 -0.0090332 28 -0.0090332C25.997 -0.0090332 24.2174 1.26916 23.5777 3.16725C22.938 5.06534 23.581 7.15996 25.1753 8.37234L24.2213 10.6663H24C22.8954 10.6663 22 11.5618 22 12.6663C22 13.7709 22.8954 14.6663 24 14.6663ZM28 38.6663C26.1591 38.6663 24.6667 37.174 24.6667 35.333C24.6667 33.4921 26.1591 31.9997 28 31.9997C29.841 31.9997 31.3333 33.4921 31.3333 35.333C31.3311 37.173 29.8401 38.6641 28 38.6663ZM31.3333 32.0737C30.4577 31.1739 29.2555 30.6664 28 30.6664C26.7445 30.6664 25.5423 31.1739 24.6667 32.0737V29.8943L31.3333 28.2277V32.0737ZM31.836 25.3523C31.8897 25.3395 31.9448 25.333 32 25.333C32.3361 25.333 32.6196 25.5832 32.6615 25.9167C32.7033 26.2502 32.4904 26.5626 32.1647 26.6457L24.1647 28.6457C23.9336 28.7037 23.6892 28.634 23.5235 28.4629C23.3577 28.2918 23.2959 28.0453 23.3612 27.8163C23.4264 27.5872 23.609 27.4103 23.84 27.3523L31.836 25.3523ZM26.6667 25.2703V24.061L29.3333 23.3943V24.6037L26.6667 25.2703ZM31.836 20.0197C32.067 19.9614 32.3116 20.0309 32.4775 20.2018C32.6435 20.3728 32.7056 20.6193 32.6405 20.8485C32.5755 21.0777 32.393 21.2548 32.162 21.313L24.162 23.313C23.931 23.371 23.6866 23.3013 23.5208 23.1303C23.3551 22.9592 23.2932 22.7127 23.3585 22.4836C23.4238 22.2545 23.6063 22.0777 23.8373 22.0197L31.836 20.0197ZM26.6667 19.9377V18.7283L29.3333 18.0617V19.271L26.6667 19.9377ZM32.162 15.9797L24.162 17.9797C23.931 18.0377 23.6866 17.968 23.5208 17.7969C23.3551 17.6258 23.2932 17.3793 23.3585 17.1503C23.4238 16.9212 23.6063 16.7443 23.8373 16.6863L31.8373 14.6863C31.8906 14.6734 31.9452 14.6667 32 14.6663C32.3361 14.6664 32.6196 14.9166 32.6615 15.25C32.7033 15.5835 32.4904 15.896 32.1647 15.979L32.162 15.9797ZM24.6667 4.66634C24.6667 2.82539 26.1591 1.33301 28 1.33301C29.841 1.33301 31.3333 2.82539 31.3333 4.66634C31.3333 6.50729 29.841 7.99967 28 7.99967C26.16 7.99747 24.6689 6.50638 24.6667 4.66634ZM30.3333 10.6663H25.6667L26.3493 9.02567C27.4121 9.43546 28.5893 9.43546 29.652 9.02567L30.3333 10.6663ZM24 11.9997H32C32.3682 11.9997 32.6667 12.2982 32.6667 12.6663C32.6667 13.0345 32.3682 13.333 32 13.333H24C23.6318 13.333 23.3333 13.0345 23.3333 12.6663C23.3333 12.2982 23.6318 11.9997 24 11.9997Z" fill="#060B56"/>
</g>
<defs>
<clipPath id="clip0_1_1324">
<rect width="40" height="40" fill="white"/>
</clipPath>
</defs>
</svg>
