<svg width="30" height="24" viewBox="0 0 30 24" fill="none" xmlns="http://www.w3.org/2000/svg">
<path d="M17.5896 2.99023L12.3003 16.2135H9.65561L4.3663 20.1805V16.2135C3.26436 16.4339 1.06049 16.2135 1.06049 13.5688V3.6514C5.68863 3.43101 15.4738 2.99023 17.5896 2.99023Z" fill="#EAECF0"/>
<path d="M16.9283 5.63428L28.8293 6.29544V18.1964L24.8623 18.8575V22.8245L19.573 18.8575H11.639L16.9283 5.63428Z" fill="#1781F8"/>
<path d="M10.1515 21.8888H9.90909C9.54545 21.7675 9.42424 21.4039 9.54546 21.0403L18.5152 0.433997C18.6365 0.0703575 19.0001 -0.050856 19.3637 0.0703573C19.7274 0.191571 19.8486 0.55521 19.7274 0.91885L10.7576 21.5251C10.6364 21.7675 10.3939 21.8888 10.1515 21.8888Z" fill="#060B56"/>
<path d="M25.3029 23.0998C25.1817 23.0998 25.0605 23.0998 24.9393 22.9786L20.2119 19.4634H11.9694C11.727 19.4634 11.3634 19.4634 11.1209 19.3422C10.7573 19.221 10.6361 18.9786 10.7573 18.615C10.8785 18.2513 11.1209 18.1301 11.4846 18.2513C11.6058 18.2513 11.8482 18.3725 11.9694 18.3725H20.4544C20.5756 18.3725 20.6968 18.3725 20.818 18.4937L24.6968 21.4029V18.9786C24.6968 18.615 24.9393 18.3725 25.3029 18.3725H26.515C27.4847 18.3725 28.3332 17.524 28.3332 16.5543V8.06939C28.3332 7.09969 27.4847 6.2512 26.515 6.2512H17.0604C16.6968 6.2512 16.4543 6.00877 16.4543 5.64513C16.4543 5.28149 16.6968 5.03906 17.0604 5.03906H26.515C28.212 5.03906 29.5454 6.37241 29.5454 8.06939V16.5543C29.5454 18.2513 28.212 19.5847 26.515 19.5847H25.909V22.4938C25.909 22.7362 25.7878 22.9786 25.5453 22.9786C25.4241 23.0998 25.4241 23.0998 25.3029 23.0998Z" fill="#060B56"/>
<path d="M4.69693 20.6761C4.57572 20.6761 4.45451 20.6761 4.45451 20.5549C4.21208 20.4337 4.09087 20.1913 4.09087 20.0701V17.0397H3.4848C1.78781 17.0397 0.454468 15.7064 0.454468 14.0094V5.52447C0.454468 3.82749 1.78781 2.49414 3.4848 2.49414H18.0304C18.394 2.49414 18.6365 2.73657 18.6365 3.10021C18.6365 3.46385 18.394 3.70627 18.0304 3.70627H3.4848C2.51509 3.70627 1.6666 4.55477 1.6666 5.52447V14.0094C1.6666 14.9791 2.51509 15.8276 3.4848 15.8276H4.69693C5.06057 15.8276 5.303 16.07 5.303 16.4337V18.8579L9.18183 15.9488C9.30304 15.8276 9.42425 15.8276 9.54546 15.8276H11.9697C12.3334 15.8276 12.5758 16.07 12.5758 16.4337C12.5758 16.7973 12.3334 17.0397 11.9697 17.0397H9.78789L5.06057 20.5549C4.93936 20.6761 4.81815 20.6761 4.69693 20.6761Z" fill="#060B56"/>
<path d="M8.49084 12.908C7.81201 12.908 7.28429 12.7499 6.90768 12.4338C6.53571 12.1176 6.34973 11.6712 6.34973 11.0947C6.34973 10.7274 6.45435 10.3973 6.66357 10.1044C6.87745 9.81143 7.21687 9.55338 7.68182 9.33021V9.29533C7.39355 9.11865 7.182 8.92337 7.04716 8.70949C6.91697 8.49097 6.85188 8.24454 6.85188 7.97022C6.85188 7.75634 6.88908 7.54944 6.96347 7.34951C7.03786 7.14493 7.1448 6.96592 7.28429 6.81248C7.42842 6.6544 7.60046 6.52886 7.80039 6.43587C8.00496 6.34288 8.23512 6.29639 8.49084 6.29639C8.83491 6.29639 9.12783 6.37543 9.3696 6.53351C9.61138 6.6916 9.80666 6.8985 9.95544 7.15423L9.20919 7.81678C9.1069 7.65405 8.98834 7.53549 8.8535 7.46109C8.71867 7.38205 8.55128 7.34253 8.35136 7.34253C8.10028 7.34253 7.90267 7.396 7.75854 7.50294C7.61905 7.60988 7.54931 7.76796 7.54931 7.97719C7.54931 8.40495 7.8957 8.61883 8.58848 8.61883C8.71867 8.61883 8.85815 8.61185 9.00694 8.5979C9.15572 8.58396 9.32078 8.56071 9.50211 8.52816L10.0601 8.43052L10.2205 9.39298L9.30683 9.54641C8.54896 9.67195 7.99567 9.84398 7.64695 10.0625C7.29824 10.281 7.12388 10.567 7.12388 10.9203V11.004C7.12388 11.297 7.24477 11.5132 7.48654 11.6526C7.72832 11.7921 8.06308 11.8619 8.49084 11.8619C8.82561 11.8619 9.15572 11.8014 9.48119 11.6805C9.81131 11.5643 10.0949 11.3969 10.3321 11.1784L10.8551 12.0014C10.5622 12.285 10.2088 12.5058 9.79503 12.6639C9.38123 12.8267 8.9465 12.908 8.49084 12.908Z" fill="#010212"/>
<path d="M22.8637 15.5526L22.39 13.9802H20.183L19.7094 15.5526H18.2507L20.4293 8.94092H22.2101L24.3603 15.5526H22.8637ZM21.3007 10.2481H21.2534L20.524 12.7582H22.0396L21.3007 10.2481Z" fill="white"/>
</svg>
