<svg width="40" height="40" viewBox="0 0 40 40" fill="none" xmlns="http://www.w3.org/2000/svg">
<path d="M0.459385 18.2052C1.25157 22.2166 5.14743 24.8276 6.65181 28.5433C9.25009 34.9606 14.0563 39.3483 21.2806 39.3483C35.1949 39.3483 41.0345 27.6332 39.851 19.4765C36.7176 -2.12064 -4.79647 -8.40814 0.459385 18.2052Z" fill="url(#paint0_linear_1_1098)"/>
<path opacity="0.1" d="M33.1285 26.6429C33.6831 25.1604 33.9871 23.5555 33.9871 21.8794C33.9871 14.37 27.8996 8.28252 20.3903 8.28252C19.3894 8.28252 18.4142 8.39166 17.4749 8.59689C16.9722 7.55736 15.9077 6.84033 14.6756 6.84033H6.459C4.7426 6.84033 3.35119 8.23174 3.35119 9.94814V33.8106C3.35119 35.5271 4.7426 36.9185 6.459 36.9185H14.6755C15.9076 36.9185 16.9721 36.2014 17.4749 35.1619C18.4142 35.3671 19.3894 35.4763 20.3902 35.4763C22.4931 35.4763 24.4845 34.9986 26.262 34.1462C27.1496 35.967 29.0181 37.2217 31.18 37.2217C34.2003 37.2217 36.6488 34.7733 36.6488 31.753C36.6488 29.4192 35.1864 27.4281 33.1285 26.6429ZM17.7834 29.1946V14.5642C18.5982 14.2738 19.4756 14.1152 20.3903 14.1152C24.6786 14.1152 28.1545 17.591 28.1545 21.8794C28.1545 26.1678 24.6786 29.6436 20.3903 29.6436C19.4756 29.6436 18.5982 29.485 17.7834 29.1946Z" fill="#060B56"/>
<path d="M20.3903 6.25134C12.8809 6.25134 6.79338 12.3388 6.79338 19.8482C6.79338 27.3576 12.8809 33.4451 20.3903 33.4451C27.8996 33.4451 33.9871 27.3576 33.9871 19.8482C33.9871 12.3388 27.8996 6.25134 20.3903 6.25134ZM20.3903 27.6124C16.1019 27.6124 12.626 24.1366 12.626 19.8482C12.626 15.5599 16.1019 12.084 20.3903 12.084C24.6786 12.084 28.1545 15.5599 28.1545 19.8482C28.1545 24.1366 24.6785 27.6124 20.3903 27.6124Z" fill="white"/>
<path d="M20.3902 7.45032C13.543 7.45032 7.99228 13.001 7.99228 19.8483C7.99228 26.6956 13.543 32.2463 20.3902 32.2463C27.2375 32.2463 32.7882 26.6956 32.7882 19.8483C32.7882 13.001 27.2374 7.45032 20.3902 7.45032ZM20.3902 27.6125C16.1019 27.6125 12.626 24.1366 12.626 19.8483C12.626 15.5599 16.1019 12.0841 20.3902 12.0841C24.6786 12.0841 28.1545 15.5599 28.1545 19.8483C28.1545 24.1366 24.6785 27.6125 20.3902 27.6125Z" fill="#1781F8"/>
<path d="M20.3902 27.6126C16.1022 27.6126 12.626 24.1364 12.626 19.8484H10.7184C10.4975 19.8484 10.3188 20.0316 10.3276 20.2523C10.5343 25.4929 14.7457 29.7043 19.9863 29.911C20.207 29.9197 20.3902 29.741 20.3902 29.5202V27.6126ZM30.4529 19.4445C30.2462 14.2038 26.0348 9.99242 20.7942 9.7857C20.5734 9.77703 20.3902 9.9557 20.3902 10.1766V12.0841C24.6783 12.0841 28.1545 15.5603 28.1545 19.8484H30.062C30.2829 19.8484 30.4616 19.6652 30.4529 19.4445Z" fill="white"/>
<path d="M21.7745 29.4977C21.5812 29.4977 21.4132 29.3542 21.3876 29.1574C21.3598 28.9435 21.5106 28.7475 21.7245 28.7197C25.6591 28.2077 28.7578 25.0988 29.2602 21.1594C29.2876 20.9454 29.4829 20.7941 29.6971 20.8213C29.9111 20.8486 30.0625 21.0442 30.0352 21.2581C29.488 25.5497 26.112 28.9366 21.8254 29.4943C21.8083 29.4967 21.7913 29.4977 21.7745 29.4977Z" fill="#1781F8"/>
<path d="M11.1332 18.8784C11.1167 18.8784 11.1001 18.8774 11.0833 18.8752C10.8693 18.8478 10.7179 18.6523 10.7452 18.4383C11.2924 14.1467 14.6685 10.7599 18.955 10.2021C19.1689 10.1738 19.3649 10.3252 19.3928 10.5391C19.4206 10.753 19.2697 10.949 19.0558 10.9768C15.1213 11.4888 12.0225 14.5978 11.5201 18.5371C11.495 18.7343 11.3269 18.8784 11.1332 18.8784Z" fill="#1781F8"/>
<path d="M14.6755 34.8873H6.45901C4.7426 34.8873 3.3512 33.4959 3.3512 31.7795V7.91702C3.3512 6.20061 4.7426 4.8092 6.45901 4.8092H14.6755C16.3919 4.8092 17.7833 6.20061 17.7833 7.91702V31.7795C17.7834 33.4959 16.3919 34.8873 14.6755 34.8873Z" fill="#1781F8"/>
<path d="M9.90689 4.8092H11.2278V34.8873H9.90689V4.8092Z" fill="white"/>
<path d="M12.616 35.278C12.4003 35.278 12.2254 35.103 12.2254 34.8873V4.8092C12.2254 4.5935 12.4003 4.41858 12.616 4.41858C12.8317 4.41858 13.0067 4.5935 13.0067 4.8092V34.8873C13.0067 35.103 12.8318 35.278 12.616 35.278Z" fill="#060B56"/>
<path d="M14.3415 33.3882C14.2415 33.3882 14.1416 33.3501 14.0653 33.2739C13.9127 33.1213 13.9127 32.8739 14.0653 32.7214L14.6268 32.1599C15.2099 31.5768 15.9851 31.2557 16.8096 31.2557H17.7833C17.999 31.2557 18.1739 31.4307 18.1739 31.6464C18.1739 31.8621 17.999 32.037 17.7833 32.037H16.8096C16.1938 32.037 15.6147 32.2768 15.1792 32.7124L14.6177 33.2739C14.5414 33.35 14.4415 33.3882 14.3415 33.3882Z" fill="#060B56"/>
<path d="M12.616 31.8678C12.4003 31.8678 12.2254 31.6929 12.2254 31.4772C12.2254 31.2615 12.4003 31.0865 12.616 31.0865C13.7232 31.0865 14.6239 30.1858 14.6239 29.0787C14.6239 28.863 14.7988 28.6881 15.0145 28.6881C15.2302 28.6881 15.4051 28.863 15.4051 29.0787C15.4051 30.6166 14.1539 31.8678 12.616 31.8678Z" fill="#060B56"/>
<path d="M14.3415 27.6817C14.2415 27.6817 14.1416 27.6436 14.0653 27.5673C13.9127 27.4147 13.9127 27.1675 14.0653 27.0149L14.6268 26.4533C15.2099 25.8703 15.9851 25.5492 16.8096 25.5492H17.7833C17.999 25.5492 18.1739 25.7241 18.1739 25.9398C18.1739 26.1555 17.999 26.3304 17.7833 26.3304H16.8096C16.1938 26.3304 15.6147 26.5703 15.1792 27.0058L14.6177 27.5673C14.5415 27.6436 14.4415 27.6817 14.3415 27.6817Z" fill="#060B56"/>
<path d="M12.616 26.1609C12.4003 26.1609 12.2254 25.986 12.2254 25.7703C12.2254 25.5546 12.4003 25.3796 12.616 25.3796C13.7232 25.3796 14.6239 24.4789 14.6239 23.3718C14.6239 23.1561 14.7988 22.9812 15.0145 22.9812C15.2302 22.9812 15.4051 23.1561 15.4051 23.3718C15.4051 24.9098 14.1539 26.1609 12.616 26.1609Z" fill="#060B56"/>
<path d="M14.3415 21.975C14.2415 21.975 14.1416 21.9369 14.0653 21.8607C13.9127 21.7081 13.9127 21.4608 14.0653 21.3082L14.6268 20.7467C15.2099 20.1636 15.9851 19.8425 16.8096 19.8425H17.7833C17.999 19.8425 18.1739 20.0175 18.1739 20.2332C18.1739 20.4489 17.999 20.6238 17.7833 20.6238H16.8096C16.1938 20.6238 15.6147 20.8636 15.1792 21.2992L14.6177 21.8607C14.5415 21.9369 14.4415 21.975 14.3415 21.975Z" fill="#060B56"/>
<path d="M12.616 20.4542C12.4003 20.4542 12.2254 20.2793 12.2254 20.0636C12.2254 19.8479 12.4003 19.673 12.616 19.673C13.7231 19.673 14.6238 18.7723 14.6238 17.6652C14.6238 17.4495 14.7988 17.2745 15.0145 17.2745C15.2302 17.2745 15.4051 17.4495 15.4051 17.6652C15.4051 19.2031 14.1539 20.4542 12.616 20.4542Z" fill="#060B56"/>
<path d="M14.3415 16.2678C14.2415 16.2678 14.1416 16.2296 14.0653 16.1534C13.9127 16.0008 13.9127 15.7535 14.0653 15.601L14.6268 15.0394C15.2099 14.4563 15.9851 14.1353 16.8096 14.1353H17.7833C17.999 14.1353 18.1739 14.3102 18.1739 14.5259C18.1739 14.7416 17.999 14.9165 17.7833 14.9165H16.8096C16.1938 14.9165 15.6147 15.1563 15.1792 15.5919L14.6177 16.1535C14.5414 16.2296 14.4415 16.2678 14.3415 16.2678Z" fill="#060B56"/>
<path d="M12.616 14.7473C12.4003 14.7473 12.2254 14.5724 12.2254 14.3567C12.2254 14.141 12.4003 13.9661 12.616 13.9661C13.7232 13.9661 14.6239 13.0654 14.6239 11.9583C14.6239 11.7425 14.7988 11.5676 15.0145 11.5676C15.2302 11.5676 15.4051 11.7425 15.4051 11.9583C15.4051 13.4962 14.1539 14.7473 12.616 14.7473Z" fill="#060B56"/>
<path d="M14.3415 10.5612C14.2415 10.5612 14.1416 10.5231 14.0653 10.4468C13.9127 10.2943 13.9127 10.047 14.0653 9.89441L14.6268 9.33285C15.2099 8.7498 15.9851 8.42871 16.8096 8.42871H17.7833C17.999 8.42871 18.1739 8.60363 18.1739 8.81934C18.1739 9.03504 17.999 9.20996 17.7833 9.20996H16.8096C16.1938 9.20996 15.6147 9.4498 15.1792 9.88527L14.6177 10.4468C14.5415 10.523 14.4415 10.5612 14.3415 10.5612Z" fill="#060B56"/>
<path d="M12.616 9.04028C12.4003 9.04028 12.2254 8.86536 12.2254 8.64966C12.2254 8.43395 12.4003 8.25903 12.616 8.25903C13.7231 8.25903 14.6239 7.35833 14.6239 6.25122C14.6239 6.03552 14.7988 5.8606 15.0145 5.8606C15.2302 5.8606 15.4051 6.03552 15.4051 6.25122C15.4051 7.78911 14.1539 9.04028 12.616 9.04028Z" fill="#060B56"/>
<path d="M8.51854 35.278C8.30284 35.278 8.12791 35.103 8.12791 34.8873V4.8092C8.12791 4.5935 8.30284 4.41858 8.51854 4.41858C8.73424 4.41858 8.90916 4.5935 8.90916 4.8092V34.8873C8.90916 35.103 8.73424 35.278 8.51854 35.278Z" fill="#060B56"/>
<path d="M6.79309 33.3882C6.69309 33.3882 6.59316 33.3501 6.51684 33.2738L5.95527 32.7123C5.5198 32.2767 4.94082 32.0369 4.32488 32.0369H3.35121C3.13551 32.0369 2.96059 31.8619 2.96059 31.6462C2.96059 31.4305 3.13551 31.2556 3.35121 31.2556H4.32488C5.14949 31.2556 5.92465 31.5767 6.5077 32.1598L7.06926 32.7213C7.22184 32.8739 7.22184 33.1212 7.06926 33.2737C6.99301 33.35 6.89301 33.3882 6.79309 33.3882Z" fill="#060B56"/>
<path d="M8.51855 31.8676C6.98066 31.8676 5.72949 30.6164 5.72949 29.0785C5.72949 28.8628 5.90441 28.6879 6.12011 28.6879C6.33582 28.6879 6.51074 28.8628 6.51074 29.0785C6.51074 30.1856 7.41144 31.0863 8.51855 31.0863C8.73425 31.0863 8.90918 31.2612 8.90918 31.4769C8.90918 31.6926 8.73425 31.8676 8.51855 31.8676Z" fill="#060B56"/>
<path d="M6.79309 27.6816C6.69309 27.6816 6.59316 27.6434 6.51684 27.5672L5.95527 27.0056C5.5198 26.5702 4.94082 26.3303 4.32488 26.3303H3.35121C3.13551 26.3303 2.96059 26.1554 2.96059 25.9397C2.96059 25.724 3.13551 25.5491 3.35121 25.5491H4.32488C5.14941 25.5491 5.92465 25.8702 6.5077 26.4532L7.06926 27.0148C7.22184 27.1674 7.22184 27.4147 7.06926 27.5672C6.99301 27.6434 6.89301 27.6816 6.79309 27.6816Z" fill="#060B56"/>
<path d="M8.51855 26.1608C6.98066 26.1608 5.72949 24.9096 5.72949 23.3717C5.72949 23.156 5.90441 22.9811 6.12011 22.9811C6.33582 22.9811 6.51074 23.156 6.51074 23.3717C6.51074 24.4788 7.41144 25.3795 8.51855 25.3795C8.73425 25.3795 8.90918 25.5544 8.90918 25.7701C8.90918 25.9858 8.73425 26.1608 8.51855 26.1608Z" fill="#060B56"/>
<path d="M6.79306 21.9746C6.69306 21.9746 6.59314 21.9365 6.51681 21.8602L5.95525 21.2987C5.51978 20.8631 4.9408 20.6233 4.32486 20.6233H3.35119C3.13549 20.6233 2.96056 20.4484 2.96056 20.2327C2.96056 20.017 3.13549 19.842 3.35119 19.842H4.32486C5.14947 19.842 5.92463 20.1631 6.50767 20.7463L7.06924 21.3078C7.22181 21.4604 7.22181 21.7077 7.06924 21.8602C6.99299 21.9365 6.89299 21.9746 6.79306 21.9746Z" fill="#060B56"/>
<path d="M8.51853 20.454C6.98064 20.454 5.72947 19.2028 5.72947 17.6649C5.72947 17.4492 5.90439 17.2743 6.12009 17.2743C6.33579 17.2743 6.51072 17.4492 6.51072 17.6649C6.51072 18.772 7.41142 19.6727 8.51853 19.6727C8.73423 19.6727 8.90915 19.8477 8.90915 20.0634C8.90915 20.2791 8.73423 20.454 8.51853 20.454Z" fill="#060B56"/>
<path d="M6.79309 16.2677C6.69309 16.2677 6.59316 16.2296 6.51684 16.1533L5.95527 15.5918C5.5198 15.1562 4.94082 14.9164 4.32488 14.9164H3.35121C3.13551 14.9164 2.96059 14.7415 2.96059 14.5258C2.96059 14.3101 3.13551 14.1351 3.35121 14.1351H4.32488C5.14949 14.1351 5.92465 14.4562 6.5077 15.0394L7.06926 15.6008C7.22184 15.7534 7.22184 16.0007 7.06926 16.1533C6.99301 16.2296 6.89301 16.2677 6.79309 16.2677Z" fill="#060B56"/>
<path d="M8.51855 14.7472C6.98066 14.7472 5.72949 13.496 5.72949 11.9581C5.72949 11.7424 5.90441 11.5675 6.12011 11.5675C6.33582 11.5675 6.51074 11.7424 6.51074 11.9581C6.51074 13.0652 7.41144 13.9659 8.51855 13.9659C8.73425 13.9659 8.90918 14.1409 8.90918 14.3566C8.90918 14.5723 8.73425 14.7472 8.51855 14.7472Z" fill="#060B56"/>
<path d="M6.79308 10.5611C6.69308 10.5611 6.59316 10.523 6.51683 10.4467L5.95527 9.88515C5.5198 9.44968 4.94081 9.20984 4.32488 9.20984H3.3512C3.1355 9.20984 2.96058 9.03492 2.96058 8.81921C2.96058 8.60351 3.1355 8.42859 3.3512 8.42859H4.32488C5.14941 8.42859 5.92464 8.74968 6.50769 9.33273L7.06925 9.89429C7.22183 10.0469 7.22183 10.2942 7.06925 10.4467C6.993 10.5229 6.893 10.5611 6.79308 10.5611Z" fill="#060B56"/>
<path d="M8.51854 9.04028C6.98065 9.04028 5.72948 7.78911 5.72948 6.25122C5.72948 6.03552 5.9044 5.8606 6.12011 5.8606C6.33581 5.8606 6.51073 6.03552 6.51073 6.25122C6.51073 7.35833 7.41143 8.25903 8.51854 8.25903C8.73425 8.25903 8.90917 8.43395 8.90917 8.64966C8.90917 8.86536 8.73425 9.04028 8.51854 9.04028Z" fill="#060B56"/>
<path d="M31.1801 35.1908C34.2004 35.1908 36.6489 32.7424 36.6489 29.722C36.6489 26.7017 34.2004 24.2533 31.1801 24.2533C28.1598 24.2533 25.7114 26.7017 25.7114 29.722C25.7114 32.7424 28.1598 35.1908 31.1801 35.1908Z" fill="#1781F8"/>
<path d="M35.2815 29.7217C35.2815 31.9834 33.4417 33.8232 31.18 33.8232C30.9042 33.8232 30.6354 33.7959 30.3745 33.7436C29.719 33.2365 28.801 33.06 28.801 33.06V33.0607C27.7589 32.3162 27.0784 31.0975 27.0784 29.7217C27.0784 27.46 28.9182 25.6201 31.18 25.6201C33.4417 25.6201 35.2815 27.46 35.2815 29.7217Z" fill="white"/>
<path d="M29.5253 31.8625C29.5257 31.8627 29.5259 31.8629 29.5262 31.8631C29.4926 31.4001 29.6028 30.9159 29.9528 30.4426L29.179 30.599C29.179 30.599 29.0508 30.8237 28.9321 31.1893C28.9322 31.1894 28.9323 31.1895 28.9324 31.1897H28.9323C28.7839 31.6467 28.6503 32.3248 28.8011 33.06C29.2636 33.3904 29.7971 33.6279 30.3745 33.7436C29.9785 33.2492 29.578 32.5816 29.5253 31.8625Z" fill="#1781F8"/>
<path d="M33.621 24.3971C34.1231 22.9369 34.378 21.4079 34.378 19.8481C34.378 12.1353 28.1031 5.86033 20.3902 5.86033C19.4777 5.86033 18.5661 5.94971 17.6782 6.12416C17.0665 5.10338 15.9496 4.41846 14.6755 4.41846H6.459C4.52994 4.41846 2.96056 5.98783 2.96056 7.91689V31.7793C2.96056 33.7084 4.52994 35.2778 6.459 35.2778H14.6755C15.9496 35.2778 17.0664 34.5928 17.6781 33.5721C18.5663 33.7465 19.4779 33.8359 20.3902 33.8359C21.7532 33.8359 23.1025 33.6392 24.4006 33.2513C24.6073 33.1895 24.7248 32.9719 24.663 32.7652C24.6012 32.5585 24.3838 32.4411 24.1769 32.5028C22.9514 32.8689 21.6774 33.0546 20.3902 33.0546C19.59 33.0546 18.7905 32.9821 18.0091 32.84C18.1159 32.5053 18.1739 32.149 18.1739 31.7793V27.6971C18.8931 27.8999 19.6369 28.0029 20.3902 28.0029C24.8867 28.0029 28.545 24.3446 28.545 19.8481C28.545 15.3515 24.8867 11.6932 20.3902 11.6932C19.6368 11.6932 18.893 11.7962 18.1739 11.999V7.91682C18.1739 7.54713 18.1158 7.1908 18.0091 6.85604C18.7904 6.71393 19.5899 6.64143 20.3902 6.64143C27.6723 6.64143 33.5967 12.5659 33.5967 19.848C33.5967 21.312 33.3592 22.7471 32.891 24.1177C32.3495 23.952 31.7751 23.8622 31.1801 23.8622C27.9492 23.8622 25.3207 26.4907 25.3207 29.7216C25.3207 32.9524 27.9492 35.581 31.1801 35.581C34.411 35.581 37.0395 32.9524 37.0395 29.7216C37.0395 27.3617 35.6363 25.3246 33.621 24.3971ZM20.3903 12.4746C24.456 12.4746 27.7638 15.7823 27.7638 19.8481C27.7638 23.914 24.4561 27.2217 20.3903 27.2217C19.6344 27.2217 18.8895 27.1064 18.174 26.8812V24.2153C18.174 23.9996 17.9991 23.8247 17.7834 23.8247C17.5677 23.8247 17.3928 23.9996 17.3928 24.2153V31.7794C17.3928 33.2777 16.1738 34.4966 14.6756 34.4966H6.459C4.96072 34.4966 3.74181 33.2776 3.74181 31.7794V7.91689C3.74181 6.41861 4.9608 5.19971 6.459 5.19971H14.6755C16.1738 5.19971 17.3927 6.41869 17.3927 7.91689V22.02C17.3927 22.2357 17.5676 22.4106 17.7833 22.4106C17.999 22.4106 18.1739 22.2357 18.1739 22.02V12.8152C18.8893 12.5899 19.6342 12.4746 20.3903 12.4746ZM31.1801 34.7999C28.38 34.7999 26.102 32.5218 26.102 29.7217C26.102 26.9217 28.38 24.6436 31.1801 24.6436C33.9802 24.6436 36.2582 26.9217 36.2582 29.7217C36.2582 32.5218 33.9802 34.7999 31.1801 34.7999Z" fill="#060B56"/>
<path d="M29.179 30.599C29.179 30.599 27.8652 29.4801 28.3031 27.7488C28.3358 27.6195 28.4731 27.5453 28.6 27.5862C29.1401 27.7606 30.3477 28.4115 29.179 30.599Z" fill="#1781F8"/>
<path d="M29.179 30.5989C29.179 30.5989 31.8443 33.1906 34.4645 28.9892C34.5364 28.8739 34.4959 28.7215 34.3758 28.6578C33.462 28.173 29.9303 26.5885 29.179 30.5989Z" fill="#1781F8"/>
<path d="M29.5904 30.3988C30.0457 29.904 31.4273 28.6858 33.7568 29.0184C33.8208 29.0276 33.8453 28.9383 33.7853 28.9141C33.2733 28.7083 32.2828 28.4402 31.1927 28.8372C30.0696 29.2462 29.6491 29.9605 29.4994 30.3419C29.4774 30.398 29.5495 30.4432 29.5904 30.3988Z" fill="white"/>
<path d="M37.0096 24.983C36.9096 24.983 36.8097 24.9448 36.7334 24.8686L35.7568 23.892C35.6042 23.7394 35.6042 23.4921 35.7568 23.3396L36.7334 22.363C36.886 22.2105 37.1332 22.2105 37.2858 22.363L38.2624 23.3396C38.4149 23.4922 38.4149 23.7395 38.2624 23.892L37.2858 24.8686C37.2096 24.9448 37.1096 24.983 37.0096 24.983ZM36.5855 23.6158L37.0096 24.0399L37.4338 23.6158L37.0096 23.1916L36.5855 23.6158Z" fill="#1781F8"/>
<path d="M22.6495 18.0584C22.5495 18.0584 22.4496 18.0203 22.3732 17.944L21.3967 16.9675C21.2441 16.8149 21.2441 16.5675 21.3967 16.415L22.3732 15.4385C22.5258 15.286 22.7731 15.286 22.9256 15.4385L23.9022 16.415C24.0548 16.5676 24.0548 16.815 23.9022 16.9675L22.9256 17.944C22.8494 18.0203 22.7495 18.0584 22.6495 18.0584ZM22.2253 16.6912L22.6495 17.1153L23.0736 16.6912L22.6495 16.2671L22.2253 16.6912Z" fill="#1781F8"/>
<path d="M28.1544 6.27239C27.5082 6.27239 26.9825 5.74668 26.9825 5.10051C26.9825 4.9802 26.9825 4.61395 27.7102 3.57692C27.8117 3.43215 27.9778 3.34583 28.1544 3.34583C28.331 3.34583 28.4971 3.43215 28.5986 3.57692C29.3263 4.61387 29.3263 4.9802 29.3263 5.10059C29.3263 5.74668 28.8006 6.27239 28.1544 6.27239ZM28.1544 4.31567C27.8755 4.74934 27.7663 5.01739 27.7638 5.10098C27.7638 5.31582 27.939 5.49114 28.1544 5.49114C28.3697 5.49114 28.5449 5.31606 28.545 5.10082C28.5424 5.017 28.4331 4.74887 28.1544 4.31567Z" fill="#1781F8"/>
<path d="M17.7833 37.7265C17.1371 37.7265 16.6114 37.2008 16.6114 36.5546C16.6114 36.4343 16.6114 36.0681 17.3391 35.031C17.4406 34.8863 17.6066 34.7999 17.7832 34.7999H17.7833C17.9599 34.7999 18.126 34.8863 18.2275 35.031C18.9552 36.0681 18.9552 36.4343 18.9552 36.5547C18.9552 37.2008 18.4295 37.7265 17.7833 37.7265ZM17.7833 35.7698C17.5045 36.2034 17.3952 36.4715 17.3927 36.5551C17.3927 36.7699 17.5679 36.9452 17.7833 36.9452C17.9986 36.9452 18.1738 36.7702 18.1739 36.5549C18.1713 36.4711 18.062 36.203 17.7833 35.7698Z" fill="#1781F8"/>
<path d="M37.0096 20.3273C36.3635 20.3273 35.8378 19.8016 35.8378 19.1554C35.8378 19.0351 35.8378 18.6689 36.5654 17.6319C36.667 17.4872 36.833 17.4008 37.0096 17.4008H37.0096C37.1862 17.4008 37.3522 17.4871 37.4539 17.6318C38.1815 18.669 38.1815 19.0351 38.1815 19.1555C38.1815 19.8016 37.6558 20.3273 37.0096 20.3273ZM37.0096 18.3706C36.7308 18.8043 36.6215 19.0724 36.619 19.156C36.619 19.3708 36.7942 19.5461 37.0096 19.5461C37.2249 19.5461 37.4001 19.3711 37.4003 19.1558C37.3976 19.072 37.2882 18.8039 37.0096 18.3706Z" fill="#1781F8"/>
<defs>
<linearGradient id="paint0_linear_1_1098" x1="7.10251" y1="31.3785" x2="32.0167" y2="6.46443" gradientUnits="userSpaceOnUse">
<stop stop-color="#D0DCFF" stop-opacity="0"/>
<stop offset="1" stop-color="#B5C3FF"/>
</linearGradient>
</defs>
</svg>
